<svg data-v-fde0c5aa="" xmlns="http://www.w3.org/2000/svg" viewBox="0 0 300 300" class="font"><!----><defs data-v-fde0c5aa=""><linearGradient data-v-fde0c5aa="" gradientTransform="rotate(25)" id="2bc9d9b4-974a-4ab2-b2fa-11185bfdce5c" x1="0%" y1="0%" x2="100%" y2="0%"><stop data-v-fde0c5aa="" offset="0%" stop-color="#792300" stop-opacity="1"></stop><stop data-v-fde0c5aa="" offset="100%" stop-color="#F37000" stop-opacity="1"></stop></linearGradient></defs><rect data-v-fde0c5aa="" fill="url(#2bc9d9b4-974a-4ab2-b2fa-11185bfdce5c)" x="0" y="0" width="300px" height="300px" class="logo-background-square"></rect><defs data-v-fde0c5aa=""><!----></defs><g data-v-fde0c5aa="" id="73a51e46-43be-492d-817f-8314c2bf4592" fill="#ffffff" transform="matrix(1.8466600218301068,0,0,1.8466600218301068,39.6860677929868,138.28775161673406)"><path d="M7.06 0.95L7.06 1.08L7.06 1.08Q7.07 1.09 7.07 1.11L7.07 1.11L7.07 1.11Q7.07 1.12 7.08 1.15L7.08 1.15L7.08 1.27L7.46 1.05L7.46 1.05Q7.43 1.12 7.38 1.23L7.38 1.23L7.38 1.23Q7.45 1.50 7.45 1.79L7.45 1.79L7.45 1.79Q7.45 2.09 7.42 2.38L7.42 2.38L7.42 2.38Q7.39 2.67 7.36 2.97L7.36 2.97L7.36 2.97Q7.32 3.26 7.32 3.53L7.32 3.53L7.32 3.53Q7.29 4.31 7.29 5.08L7.29 5.08L7.29 5.08Q7.29 5.85 7.31 6.62L7.31 6.62L7.31 6.62Q7.32 6.75 7.33 6.87L7.33 6.87L7.33 6.87Q7.34 6.99 7.36 7.10L7.36 7.10L7.36 7.10Q7.42 7.64 7.50 8.19L7.50 8.19L7.50 8.19Q7.57 8.74 7.67 9.27L7.67 9.27L7.67 9.27Q7.67 9.31 7.70 9.42L7.70 9.42L7.70 9.42Q7.76 9.62 7.80 9.81L7.80 9.81L7.80 9.81Q7.84 10.01 7.87 10.21L7.87 10.21L7.88 10.23L7.87 10.25L7.87 10.25Q7.87 10.26 7.88 10.27L7.88 10.27L7.88 10.27Q7.88 10.28 7.88 10.29L7.88 10.29L7.88 10.29Q7.87 10.37 7.76 10.54L7.76 10.54L7.76 10.54Q7.64 10.70 7.50 10.84L7.50 10.84L7.50 10.84Q7.36 10.99 7.22 11.08L7.22 11.08L7.22 11.08Q7.08 11.17 6.99 11.10L6.99 11.10L6.99 11.10Q6.96 11.10 6.96 11.13L6.96 11.13L6.96 11.13Q6.96 11.10 6.95 11.10L6.95 11.10L6.95 11.10Q6.94 11.09 6.94 11.07L6.94 11.07L6.94 11.07Q6.89 10.89 6.85 10.71L6.85 10.71L6.85 10.71Q6.80 10.53 6.76 10.35L6.76 10.35L6.76 10.35Q6.65 10.04 6.54 9.77L6.54 9.77L6.54 9.77Q6.47 9.79 6.40 9.74L6.40 9.74L6.38 9.76L6.38 9.73L6.38 9.73Q6.20 9.49 6.10 9.03L6.10 9.03L6.10 9.03Q6.01 8.57 5.95 8.06L5.95 8.06L5.95 8.06Q5.89 7.55 5.87 7.06L5.87 7.06L5.87 7.06Q5.84 6.58 5.81 6.29L5.81 6.29L5.95 6.17L5.95 6.17Q5.94 6.12 5.94 6.08L5.94 6.08L5.94 6.08Q5.94 6.02 5.92 5.96L5.92 5.96L5.92 5.96Q5.71 6.10 5.57 6.10L5.57 6.10L5.57 6.10Q5.08 6.12 4.63 6.13L4.63 6.13L4.63 6.13Q4.17 6.13 3.72 6.17L3.72 6.17L3.72 6.17Q3.26 6.20 2.79 6.26L2.79 6.26L2.79 6.26Q2.32 6.33 1.82 6.44L1.82 6.44L1.82 6.93L1.82 6.93Q1.82 7.13 1.79 7.51L1.79 7.51L1.79 7.51Q1.76 7.90 1.76 8.31L1.76 8.31L1.76 8.31Q1.75 8.72 1.80 9.09L1.80 9.09L1.80 9.09Q1.85 9.46 1.99 9.66L1.99 9.66L1.99 9.66Q2.00 9.67 2.04 9.67L2.04 9.67L1.93 9.80L1.93 9.80Q1.96 9.91 1.97 10.02L1.97 10.02L1.97 10.02Q1.97 10.12 1.99 10.23L1.99 10.23L1.99 10.23Q1.96 10.32 1.85 10.49L1.85 10.49L1.85 10.49Q1.74 10.65 1.60 10.80L1.60 10.80L1.60 10.80Q1.46 10.95 1.31 11.04L1.31 11.04L1.31 11.04Q1.16 11.13 1.08 11.06L1.08 11.06L1.06 11.06L1.06 11.05L1.06 11.05Q1.05 11.02 1.04 10.98L1.04 10.98L1.04 10.98Q1.02 10.95 1.01 10.92L1.01 10.92L1.01 10.92Q0.80 11.10 0.67 11.02L0.67 11.02L0.67 11.02Q0.64 11.05 0.64 11.05L0.64 11.05L0.64 10.95L0.64 10.95Q0.60 10.47 0.49 10.02L0.49 10.02L0.49 10.02Q0.38 9.56 0.32 9.07L0.32 9.07L0.32 9.07Q0.25 8.54 0.23 8.01L0.23 8.01L0.23 8.01Q0.21 7.48 0.20 6.94L0.20 6.94L0.20 6.94Q0.14 6.92 0.20 6.76L0.20 6.76L0.20 6.76Q0.20 5.32 0.36 3.92L0.36 3.92L0.36 3.92Q0.41 3.61 0.44 3.23L0.44 3.23L0.44 3.23Q0.48 2.84 0.55 2.46L0.55 2.46L0.55 2.46Q0.63 2.07 0.77 1.72L0.77 1.72L0.77 1.72Q0.91 1.37 1.15 1.13L1.15 1.13L1.15 1.13Q1.26 1.02 1.42 0.89L1.42 0.89L1.42 0.89Q1.58 0.76 1.76 0.78L1.76 0.78L1.76 0.78Q1.85 0.88 1.85 0.98L1.85 0.98L1.85 0.98Q1.96 0.87 2.09 0.76L2.09 0.76L2.09 0.76Q2.21 0.64 2.31 0.59L2.31 0.59L2.31 0.59Q2.41 0.53 2.46 0.56L2.46 0.56L2.46 0.56Q2.51 0.59 2.46 0.76L2.46 0.76L2.46 0.76Q2.44 0.81 2.41 0.86L2.41 0.86L2.41 0.86Q2.38 0.91 2.35 0.97L2.35 0.97L2.35 0.97Q2.31 1.06 2.26 1.17L2.26 1.17L2.26 1.17Q2.21 1.27 2.18 1.40L2.18 1.40L2.18 1.40Q2.21 1.47 2.27 1.53L2.27 1.53L2.27 1.53Q2.32 1.60 2.38 1.65L2.38 1.65L2.07 1.95L2.07 1.95Q1.93 2.73 1.88 3.71L1.88 3.71L1.88 3.71Q1.83 4.69 1.82 5.56L1.82 5.56L1.82 5.56Q2.00 5.47 2.18 5.42L2.18 5.42L2.18 5.42Q2.37 5.38 2.56 5.33L2.56 5.33L2.56 5.33Q3.37 5.12 4.21 5.05L4.21 5.05L4.21 5.05Q5.05 4.98 5.82 5.01L5.82 5.01L5.77 5.08L5.88 5.08L5.88 5.08Q5.85 4.26 5.90 3.46L5.90 3.46L5.90 3.46Q5.95 2.67 6.13 2.00L6.13 2.00L6.13 1.83L6.13 1.83Q6.16 1.71 6.28 1.55L6.28 1.55L6.28 1.55Q6.40 1.39 6.54 1.25L6.54 1.25L6.54 1.25Q6.68 1.11 6.82 1.02L6.82 1.02L6.82 1.02Q6.96 0.94 7.01 0.99L7.01 0.99L7.06 0.95ZM13.82 2.32L14.59 1.67L14.59 1.67Q14.59 1.65 14.60 1.64L14.60 1.64L14.60 1.64Q14.60 1.62 14.60 1.61L14.60 1.61L14.60 1.61Q14.71 1.36 14.94 1.12L14.94 1.12L14.94 1.12Q15.16 0.88 15.44 0.81L15.44 0.81L15.47 0.81L15.47 0.81Q15.48 0.81 15.49 0.82L15.49 0.82L15.49 0.82Q15.50 0.83 15.51 0.83L15.51 0.83L15.78 0.60L15.78 0.60Q15.81 1.29 15.87 1.98L15.87 1.98L15.87 1.98Q15.93 2.67 16.00 3.36L16.00 3.36L16.00 3.36Q16.06 4.05 16.10 4.73L16.10 4.73L16.10 4.73Q16.14 5.42 16.10 6.12L16.10 6.12L16.10 6.12Q16.09 6.26 16.13 6.38L16.13 6.38L16.13 6.38Q16.17 6.50 16.21 6.62L16.21 6.62L16.21 6.62Q16.27 6.85 16.25 7.08L16.25 7.08L16.25 7.08Q16.23 7.32 16.15 7.57L16.15 7.57L16.15 7.57Q16.07 7.81 15.96 8.03L15.96 8.03L15.96 8.03Q15.85 8.25 15.72 8.43L15.72 8.43L15.72 8.43Q15.46 8.85 15.09 9.21L15.09 9.21L15.09 9.21Q14.71 9.56 14.29 9.84L14.29 9.84L14.29 9.84Q13.86 10.11 13.38 10.28L13.38 10.28L13.38 10.28Q12.89 10.44 12.40 10.49L12.40 10.49L12.40 10.49Q11.91 10.60 11.45 10.61L11.45 10.61L11.45 10.61Q10.98 10.63 10.60 10.53L10.60 10.53L10.60 10.53Q10.12 10.40 9.79 10.09L9.79 10.09L9.79 10.09Q9.45 9.79 9.24 9.37L9.24 9.37L9.24 9.37Q9.00 8.90 8.88 8.20L8.88 8.20L8.88 8.20Q8.76 7.49 8.72 6.66L8.72 6.66L8.72 6.66Q8.64 6.17 8.58 5.69L8.58 5.69L8.58 5.69Q8.51 5.21 8.44 4.72L8.44 4.72L8.44 4.72Q8.36 4.10 8.26 3.49L8.26 3.49L8.26 3.49Q8.16 2.87 8.27 2.24L8.27 2.24L8.27 2.24Q8.34 2.09 8.44 1.94L8.44 1.94L8.44 1.94Q8.54 1.79 8.69 1.68L8.69 1.68L8.69 1.68Q8.75 1.55 8.88 1.39L8.88 1.39L8.88 1.39Q9.00 1.23 9.14 1.11L9.14 1.11L9.14 1.11Q9.28 0.98 9.40 0.92L9.40 0.92L9.40 0.92Q9.52 0.87 9.56 0.95L9.56 0.95L9.58 0.95L9.60 0.92L9.60 0.92Q9.62 0.91 9.63 0.90L9.63 0.90L9.63 0.90Q9.65 0.90 9.66 0.88L9.66 0.88L9.66 0.88Q9.67 0.88 9.68 0.88L9.68 0.88L9.68 0.88Q9.69 0.87 9.70 0.87L9.70 0.87L9.70 0.87Q9.73 0.85 9.74 0.84L9.74 0.84L9.74 0.84Q9.76 0.83 9.79 0.83L9.79 0.83L9.80 0.81L9.80 0.81Q9.87 0.78 9.91 0.83L9.91 0.83L9.94 0.85L9.94 0.85Q9.94 0.88 9.95 0.90L9.95 0.90L9.95 1.13L10.40 0.70L10.40 0.70Q10.50 0.99 10.43 1.26L10.43 1.26L10.43 1.26Q10.36 1.53 10.35 1.82L10.35 1.82L10.35 1.82Q10.32 2.23 10.31 2.58L10.31 2.58L10.31 2.58Q10.30 2.93 10.30 3.33L10.30 3.33L10.30 3.33Q10.30 3.98 10.31 4.61L10.31 4.61L10.31 4.61Q10.32 5.25 10.40 5.88L10.40 5.88L10.40 5.88Q10.47 6.51 10.63 7.13L10.63 7.13L10.63 7.13Q10.78 7.74 11.06 8.32L11.06 8.32L11.06 8.32Q11.16 8.40 11.26 8.46L11.26 8.46L11.26 8.46Q11.35 8.53 11.47 8.60L11.47 8.60L11.68 8.46L11.68 8.36L11.68 8.36Q12.15 8.60 12.68 8.68L12.68 8.68L12.68 8.68Q13.20 8.76 13.73 8.76L13.73 8.76L13.73 8.76Q13.83 8.22 13.86 7.74L13.86 7.74L13.86 7.74Q13.89 7.27 13.87 6.80L13.87 6.80L13.87 6.80Q13.86 6.33 13.83 5.84L13.83 5.84L13.83 5.84Q13.80 5.35 13.79 4.80L13.79 4.80L13.79 4.80Q13.76 4.17 13.82 3.56L13.82 3.56L13.82 3.56Q13.87 2.95 13.82 2.32L13.82 2.32ZM18.13 0.70L18.09 0.74L18.09 0.74Q18.12 0.81 18.14 0.92L18.14 0.92L18.14 0.92Q18.16 1.02 18.19 1.06L18.19 1.06L18.19 1.06Q18.26 1.27 18.33 1.41L18.33 1.41L18.33 1.41Q18.37 1.40 18.40 1.39L18.40 1.39L18.40 1.39Q18.44 1.39 18.48 1.39L18.48 1.39L18.48 1.39Q18.49 1.36 18.55 1.30L18.55 1.30L18.55 1.30Q18.55 1.33 18.56 1.35L18.56 1.35L18.56 1.35Q18.56 1.37 18.56 1.40L18.56 1.40L18.56 1.40Q18.68 1.57 18.73 1.79L18.73 1.79L18.73 1.79Q18.79 2.02 18.83 2.23L18.83 2.23L18.83 2.23Q19.07 2.84 19.37 3.42L19.37 3.42L19.37 3.42Q19.67 3.99 19.99 4.58L19.99 4.58L19.99 4.58Q20.19 4.94 20.38 5.32L20.38 5.32L20.38 5.32Q20.58 5.70 20.79 6.06L20.79 6.06L20.79 6.06Q21.07 6.45 21.38 6.84L21.38 6.84L21.38 6.84Q21.69 7.22 21.99 7.59L21.99 7.59L21.99 7.59Q21.97 7.18 21.97 6.78L21.97 6.78L21.97 6.78Q21.98 6.37 21.97 5.96L21.97 5.96L21.97 5.96Q21.95 5.64 21.92 5.19L21.92 5.19L21.92 5.19Q21.88 4.73 21.85 4.22L21.85 4.22L21.85 4.22Q21.81 3.71 21.81 3.19L21.81 3.19L21.81 3.19Q21.81 2.66 21.88 2.18L21.88 2.18L21.88 2.18Q21.95 1.69 22.11 1.30L22.11 1.30L22.11 1.30Q22.27 0.91 22.55 0.67L22.55 0.67L22.55 0.67Q22.65 0.59 22.76 0.51L22.76 0.51L22.76 0.51Q22.88 0.43 23.02 0.46L23.02 0.46L23.02 0.46Q23.10 0.52 23.11 0.73L23.11 0.73L23.11 0.73Q23.11 0.95 23.09 1.21L23.09 1.21L23.09 1.21Q23.07 1.47 23.03 1.71L23.03 1.71L23.03 1.71Q22.99 1.96 22.97 2.07L22.97 2.07L22.97 2.07Q22.99 2.39 23.00 2.63L23.00 2.63L23.00 2.63Q23.00 2.87 23.02 2.90L23.02 2.90L23.02 2.90Q23.09 3.72 23.22 4.54L23.22 4.54L23.22 4.54Q23.35 5.36 23.48 6.18L23.48 6.18L23.48 6.18Q23.60 7 23.71 7.82L23.71 7.82L23.71 7.82Q23.81 8.64 23.83 9.46L23.83 9.46L23.83 9.46Q23.79 9.59 23.60 9.84L23.60 9.84L23.60 9.84Q23.63 9.87 23.65 9.87L23.65 9.87L23.62 9.90L23.62 9.90Q23.63 10.04 23.54 10.19L23.54 10.19L23.54 10.19Q23.45 10.33 23.32 10.46L23.32 10.46L23.32 10.46Q23.18 10.58 23.03 10.67L23.03 10.67L23.03 10.67Q22.88 10.75 22.75 10.77L22.75 10.77L22.75 10.77Q22.68 10.70 22.61 10.63L22.61 10.63L22.61 10.63Q22.54 10.57 22.47 10.50L22.47 10.50L22.47 10.50Q22.40 10.44 22.32 10.35L22.32 10.35L22.32 10.35Q22.27 10.30 22.24 10.26L22.24 10.26L22.24 10.26Q22.20 10.21 22.18 10.15L22.18 10.15L22.18 10.15Q21.92 9.86 21.70 9.55L21.70 9.55L21.70 9.55Q21.48 9.25 21.24 8.95L21.24 8.95L21.24 8.95Q21.06 8.75 20.89 8.51L20.89 8.51L20.89 8.51Q20.83 8.46 20.82 8.41L20.82 8.41L20.82 8.41Q20.50 8.01 20.19 7.60L20.19 7.60L20.19 7.60Q19.88 7.20 19.60 6.76L19.60 6.76L19.60 6.76Q19.38 6.43 19.19 6.06L19.19 6.06L19.19 6.06Q19.01 5.70 18.83 5.33L18.83 5.33L18.83 5.33Q18.73 5.15 18.64 4.98L18.64 4.98L18.64 4.98Q18.55 4.82 18.47 4.63L18.47 4.63L18.47 4.63Q18.55 5.18 18.62 5.77L18.62 5.77L18.62 5.77Q18.69 6.36 18.73 6.92L18.73 6.92L18.73 6.92Q18.77 7.49 18.78 8.03L18.78 8.03L18.78 8.03Q18.79 8.57 18.75 9.03L18.75 9.03L18.75 9.03Q18.70 9.21 18.56 9.39L18.56 9.39L18.56 9.39Q18.42 9.58 18.24 9.72L18.24 9.72L18.24 9.72Q18.21 10.07 18.09 10.37L18.09 10.37L18.09 10.37Q17.96 10.68 17.70 10.95L17.70 10.95L17.70 10.95Q17.58 11.06 17.46 11.14L17.46 11.14L17.46 11.14Q17.33 11.23 17.18 11.24L17.18 11.24L17.18 11.24Q17.01 11.20 17.00 10.98L17.00 10.98L17.00 10.98Q16.98 10.75 16.98 10.63L16.98 10.63L16.98 9.10L16.98 9.10Q16.98 8.75 16.99 8.40L16.99 8.40L16.99 8.40Q17.00 8.05 17.00 7.70L17.00 7.70L16.98 7.71L16.98 7.71Q16.62 6.48 16.61 5.25L16.61 5.25L16.61 5.25Q16.60 4.02 16.66 2.76L16.66 2.76L16.66 2.76Q16.66 2.65 16.65 2.41L16.65 2.41L16.65 2.41Q16.65 2.18 16.65 1.92L16.65 1.92L16.65 1.92Q16.65 1.64 16.67 1.37L16.67 1.37L16.67 1.37Q16.69 1.09 16.74 0.91L16.74 0.91L16.74 0.91Q16.74 0.88 16.74 0.85L16.74 0.85L16.74 0.85Q16.73 0.81 16.73 0.78L16.73 0.78L16.83 0.73L16.83 0.73Q16.91 0.62 17.05 0.46L17.05 0.46L17.05 0.46Q17.18 0.31 17.31 0.19L17.31 0.19L17.31 0.19Q17.44 0.07 17.55 0.04L17.55 0.04L17.55 0.04Q17.65 0.01 17.68 0.14L17.68 0.14L17.68 0.14Q17.71 0.29 17.72 0.44L17.72 0.44L17.72 0.44Q17.74 0.59 17.77 0.74L17.77 0.74L17.77 0.74Q17.92 0.66 18.07 0.67L18.07 0.67L18.07 0.67Q18.09 0.69 18.10 0.69L18.10 0.69L18.10 0.69Q18.12 0.69 18.13 0.70L18.13 0.70ZM32.68 3.26L32.61 3.35L32.61 3.35Q32.69 3.32 32.72 3.43L32.72 3.43L32.72 3.43Q32.72 3.46 32.73 3.48L32.73 3.48L32.73 3.48Q32.73 3.50 32.73 3.53L32.73 3.53L32.73 3.53Q32.84 3.50 32.95 3.49L32.95 3.49L32.95 3.49Q33.05 3.47 33.17 3.44L33.17 3.44L33.17 3.44Q33.82 3.15 34.59 2.97L34.59 2.97L34.59 2.97Q34.41 3.21 34.24 3.43L34.24 3.43L34.24 3.43Q34.06 3.65 33.89 3.88L33.89 3.88L33.60 3.96L33.60 3.96Q33.49 4.06 33.40 4.12L33.40 4.12L33.40 4.12Q33.32 4.19 33.29 4.21L33.29 4.21L33.29 4.21Q33.17 4.28 32.98 4.35L32.98 4.35L32.98 4.35Q33.03 4.55 32.97 4.77L32.97 4.77L32.97 4.77Q32.91 4.98 32.86 5.18L32.86 5.18L32.66 5.32L32.66 5.32Q32.63 5.40 32.63 5.49L32.63 5.49L32.63 5.49Q32.63 5.57 32.62 5.66L32.62 5.66L32.62 5.66Q32.62 5.73 32.61 5.86L32.61 5.86L32.61 5.86Q32.59 5.99 32.58 6.14L32.58 6.14L32.58 6.14Q32.56 6.29 32.56 6.42L32.56 6.42L32.56 6.42Q32.55 6.55 32.55 6.62L32.55 6.62L32.55 6.62Q32.51 7.25 32.49 7.85L32.49 7.85L32.49 7.85Q32.48 8.46 32.45 9.07L32.45 9.07L32.45 9.07Q32.44 9.42 32.42 9.77L32.42 9.77L32.42 9.77Q32.41 10.12 32.33 10.44L32.33 10.44L32.33 10.44Q32.26 10.77 32.08 11.05L32.08 11.05L32.08 11.05Q31.91 11.33 31.57 11.52L31.57 11.52L31.57 11.52Q31.50 11.55 31.44 11.58L31.44 11.58L31.44 11.58Q31.37 11.61 31.32 11.54L31.32 11.54L31.32 11.54Q31.23 11.38 31.21 11.15L31.21 11.15L31.21 11.15Q31.19 10.92 31.20 10.68L31.20 10.68L31.20 10.68Q31.21 10.43 31.23 10.20L31.23 10.20L31.23 10.20Q31.25 9.97 31.25 9.80L31.25 9.80L31.25 9.80Q31.26 9.52 31.28 9.23L31.28 9.23L31.28 9.23Q31.29 8.93 31.32 8.65L31.32 8.65L31.32 8.65Q30.97 8.93 30.63 9.14L30.63 9.14L30.63 9.14Q30.30 9.35 30.06 9.45L30.06 9.45L30.06 9.45Q29.72 9.59 29.39 9.74L29.39 9.74L29.39 9.74Q29.05 9.88 28.71 9.99L28.71 9.99L28.71 9.99Q28.36 10.09 28.01 10.13L28.01 10.13L28.01 10.13Q27.66 10.16 27.29 10.11L27.29 10.11L27.29 10.11Q27.03 10.07 26.80 9.93L26.80 9.93L26.80 9.93Q26.57 9.80 26.33 9.72L26.33 9.72L26.33 9.72Q25.86 9.56 25.54 9.44L25.54 9.44L25.54 9.44Q25.21 9.31 24.99 9.11L24.99 9.11L24.99 9.11Q24.77 8.92 24.62 8.61L24.62 8.61L24.62 8.61Q24.47 8.30 24.33 7.78L24.33 7.78L24.33 7.78Q24.08 6.83 24.20 5.92L24.20 5.92L24.20 5.92Q24.32 5.00 24.72 4.17L24.72 4.17L24.72 4.17Q25.12 3.35 25.74 2.63L25.74 2.63L25.74 2.63Q26.36 1.92 27.12 1.37L27.12 1.37L27.12 1.37Q27.64 1.01 28.29 0.80L28.29 0.80L28.29 0.80Q28.94 0.60 29.58 0.64L29.58 0.64L29.58 0.64Q29.81 0.66 29.97 0.69L29.97 0.69L29.97 0.69Q30.14 0.71 30.35 0.76L30.35 0.76L30.35 0.76Q30.46 0.78 30.53 0.77L30.53 0.77L30.53 0.77Q30.59 0.76 30.74 0.70L30.74 0.70L30.74 0.70Q30.72 0.90 30.61 1.04L30.61 1.04L30.61 1.04Q30.51 1.19 30.38 1.33L30.38 1.33L30.38 1.33Q30.14 1.57 29.94 1.63L29.94 1.63L29.94 1.63Q29.74 1.69 29.51 1.67L29.51 1.67L29.40 1.78L29.40 1.78Q29.13 1.71 28.80 1.83L28.80 1.83L28.80 1.83Q28.46 1.96 28.11 2.18L28.11 2.18L28.03 2.34L28.03 2.34Q27.94 2.38 27.85 2.41L27.85 2.41L27.85 2.41Q27.76 2.45 27.69 2.48L27.69 2.48L27.69 2.48Q27.59 2.55 27.51 2.63L27.51 2.63L27.51 2.63Q27.43 2.72 27.34 2.79L27.34 2.79L27.34 2.79Q27.24 2.93 27.17 3.12L27.17 3.12L27.17 3.12Q27.10 3.30 27.06 3.48L27.06 3.48L27.06 3.48Q27.02 3.65 26.99 3.81L26.99 3.81L26.99 3.81Q26.96 3.96 26.96 4.03L26.96 4.03L26.96 4.03Q26.89 4.59 26.92 5.22L26.92 5.22L26.92 5.22Q26.94 5.85 27.08 6.46L27.08 6.46L27.08 6.46Q27.23 7.07 27.51 7.62L27.51 7.62L27.51 7.62Q27.79 8.18 28.24 8.57L28.24 8.57L28.24 8.57Q28.32 8.57 28.41 8.57L28.41 8.57L28.41 8.57Q28.49 8.57 28.57 8.58L28.57 8.58L28.45 8.74L28.45 8.74Q28.64 8.86 28.88 8.94L28.88 8.94L28.88 8.94Q29.11 9.02 29.32 9.11L29.32 9.11L29.32 9.11Q29.76 9.00 30.18 8.80L30.18 8.80L30.18 8.80Q30.60 8.60 31.01 8.41L31.01 8.41L31.01 8.41Q31.11 8.34 31.20 8.26L31.20 8.26L31.20 8.26Q31.29 8.18 31.37 8.06L31.37 8.06L31.36 8.08L31.36 8.08Q31.32 8.12 31.37 8.01L31.37 8.01L31.37 8.01Q31.44 7.43 31.52 6.88L31.52 6.88L31.52 6.88Q31.60 6.33 31.67 5.75L31.67 5.75L31.67 5.75Q31.70 5.54 31.73 5.30L31.73 5.30L31.73 5.30Q31.77 5.05 31.79 4.80L31.79 4.80L31.79 4.80Q31.47 4.94 31.16 5.07L31.16 5.07L31.16 5.07Q30.86 5.19 30.55 5.35L30.55 5.35L30.55 5.35Q30.14 5.56 29.74 5.77L29.74 5.77L29.74 5.77Q29.34 5.98 28.92 6.16L28.92 6.16L28.92 6.16Q28.77 6.17 28.79 6.08L28.79 6.08L28.79 6.08Q28.81 5.98 28.90 5.85L28.90 5.85L28.90 5.85Q28.98 5.73 29.09 5.61L29.09 5.61L29.09 5.61Q29.20 5.49 29.23 5.46L29.23 5.46L29.40 5.33L29.40 5.33Q29.40 5.33 29.41 5.31L29.41 5.31L29.41 5.31Q29.44 5.29 29.44 5.29L29.44 5.29L29.44 5.29Q29.46 5.29 29.48 5.28L29.48 5.28L29.48 5.28Q29.50 5.26 29.50 5.26L29.50 5.26L29.50 5.26Q29.51 5.26 29.53 5.25L29.53 5.25L29.53 5.25Q29.43 5.25 29.36 5.21L29.36 5.21L29.36 5.21Q29.23 5.15 29.27 5.01L29.27 5.01L29.27 5.01Q29.32 4.87 29.43 4.72L29.43 4.72L29.43 4.72Q29.54 4.56 29.67 4.42L29.67 4.42L29.67 4.42Q29.81 4.28 29.88 4.23L29.88 4.23L29.88 4.23Q30.45 3.78 31.21 3.54L31.21 3.54L31.21 3.54Q31.96 3.30 32.68 3.26L32.68 3.26ZM25.97 3.49L26.42 3.18L26.68 2.91L26.68 2.91Q26.96 2.46 27.37 2.11L27.37 2.11L27.37 2.11Q27.52 1.99 27.71 1.89L27.71 1.89L27.71 1.89Q27.90 1.79 28.10 1.69L28.10 1.69L28.10 1.69Q28.14 1.67 28.25 1.58L28.25 1.58L28.25 1.58Q28.08 1.60 27.92 1.63L27.92 1.63L27.92 1.63Q27.76 1.67 27.59 1.72L27.59 1.72L27.59 1.72Q27.01 1.92 26.57 2.31L26.57 2.31L26.57 2.31Q26.12 2.70 25.81 3.21L25.81 3.21L25.81 3.21Q25.49 3.71 25.31 4.29L25.31 4.29L25.31 4.29Q25.13 4.87 25.09 5.46L25.09 5.46L25.09 5.46Q25.06 5.91 25.14 6.50L25.14 6.50L25.14 6.50Q25.21 7.10 25.47 7.62L25.47 7.62L25.47 7.62Q25.19 6.40 25.28 5.54L25.28 5.54L25.28 5.54Q25.38 4.68 25.84 3.93L25.84 3.93L25.84 3.93Q25.87 3.82 25.91 3.71L25.91 3.71L25.91 3.71Q25.94 3.60 25.97 3.49L25.97 3.49ZM39.59 4.63L39.63 4.70L39.63 4.70Q39.84 4.83 40.02 5.00L40.02 5.00L40.02 5.00Q40.19 5.17 40.32 5.29L40.32 5.29L40.32 5.29Q40.75 5.75 40.98 6.15L40.98 6.15L40.98 6.15Q41.20 6.55 41.31 6.94L41.31 6.94L41.31 6.94Q41.41 7.34 41.43 7.73L41.43 7.73L41.43 7.73Q41.44 8.13 41.45 8.58L41.45 8.58L41.45 8.58Q41.58 9.00 41.65 9.41L41.65 9.41L41.65 9.41Q41.72 9.81 41.61 10.05L41.61 10.05L41.61 10.05Q41.54 10.21 41.43 10.32L41.43 10.32L41.43 10.32Q41.33 10.43 41.22 10.54L41.22 10.54L41.22 10.54Q41.17 10.58 41.10 10.65L41.10 10.65L41.10 10.65Q41.03 10.71 40.95 10.77L40.95 10.77L40.95 10.77Q40.87 10.82 40.79 10.84L40.79 10.84L40.79 10.84Q40.71 10.85 40.66 10.79L40.66 10.79L40.66 10.79Q40.60 10.56 40.59 10.28L40.59 10.28L40.59 10.28Q40.59 10.01 40.59 9.74L40.59 9.74L40.59 9.74Q40.50 9.37 40.38 8.99L40.38 8.99L40.38 8.99Q40.25 8.61 40.14 8.25L40.14 8.25L40.14 8.25Q40.22 8.16 40.31 8.09L40.31 8.09L40.31 8.09Q40.39 8.01 40.47 7.92L40.47 7.92L40.47 7.92Q40.40 7.67 40.33 7.48L40.33 7.48L40.33 7.48Q40.25 7.28 40.05 7L40.05 7L40.05 7Q39.86 6.72 39.62 6.43L39.62 6.43L39.62 6.43Q39.38 6.15 39.14 5.91L39.14 5.91L39.14 5.91Q38.89 5.67 38.70 5.56L38.70 5.56L38.70 5.56Q38.49 5.56 38.35 5.47L38.35 5.47L38.35 5.47Q38.30 5.45 38.30 5.35L38.30 5.35L38.30 5.35Q37.91 5.50 37.51 5.63L37.51 5.63L37.51 5.63Q37.10 5.77 36.74 5.89L36.74 5.89L36.74 5.89Q36.72 5.91 36.68 5.91L36.68 5.91L36.68 5.91Q36.68 6.17 36.68 6.44L36.68 6.44L36.68 6.44Q36.68 6.69 36.69 6.94L36.69 6.94L36.69 6.94Q36.71 7.07 36.72 7.19L36.72 7.19L36.72 7.19Q36.72 7.31 36.75 7.43L36.75 7.43L36.75 7.43Q36.79 7.78 36.87 8.13L36.87 8.13L36.87 8.13Q36.95 8.47 37.02 8.82L37.02 8.82L37.02 8.82Q37.03 8.89 37.04 8.97L37.04 8.97L37.04 8.97Q37.06 9.06 37.09 9.16L37.09 9.16L37.09 9.16Q37.11 9.35 37.13 9.55L37.13 9.55L37.13 9.55Q37.16 9.74 37.16 9.94L37.16 9.94L37.16 9.98L37.13 10.01L37.13 10.01Q37.09 10.11 36.97 10.26L36.97 10.26L36.97 10.26Q36.86 10.42 36.73 10.55L36.73 10.55L36.73 10.55Q36.60 10.68 36.46 10.75L36.46 10.75L36.46 10.75Q36.33 10.82 36.25 10.75L36.25 10.75L36.23 10.75L36.23 10.74L36.23 10.74Q36.22 10.58 36.21 10.44L36.21 10.44L36.21 10.44Q36.20 10.29 36.18 10.14L36.18 10.14L36.18 10.14Q36.04 10.28 35.90 10.34L35.90 10.34L35.90 10.34Q35.77 10.40 35.69 10.32L35.69 10.32L35.69 10.32Q35.63 10.18 35.62 10.04L35.62 10.04L35.62 10.04Q35.60 9.91 35.59 9.76L35.59 9.76L35.59 9.76Q35.53 9.48 35.52 9.10L35.52 9.10L35.52 9.10Q35.52 8.72 35.53 8.40L35.53 8.40L35.53 8.40Q35.49 7.56 35.49 6.75L35.49 6.75L35.49 6.75Q35.49 5.94 35.52 5.11L35.52 5.11L35.52 4.68L35.52 4.68Q35.49 4.37 35.48 4.05L35.48 4.05L35.48 4.05Q35.46 3.74 35.49 3.43L35.49 3.43L35.49 3.43Q35.48 3.29 35.48 3.16L35.48 3.16L35.48 3.16Q35.48 3.02 35.48 2.88L35.48 2.88L35.48 2.88Q35.45 2.77 35.43 2.67L35.43 2.67L35.43 2.67Q35.42 2.58 35.41 2.46L35.41 2.46L35.41 2.46Q35.22 2.52 35.10 2.53L35.10 2.53L35.10 2.53Q34.89 2.55 34.94 2.42L34.94 2.42L34.94 2.42Q34.99 2.30 35.13 2.13L35.13 2.13L35.13 2.13Q35.28 1.97 35.46 1.82L35.46 1.82L35.46 1.82Q35.64 1.67 35.69 1.64L35.69 1.64L35.69 1.64Q35.70 1.62 35.71 1.62L35.71 1.62L35.71 1.62Q35.73 1.62 35.74 1.61L35.74 1.61L35.74 1.61Q35.90 1.47 36.04 1.38L36.04 1.38L36.04 1.38Q36.18 1.29 36.37 1.25L36.37 1.25L36.26 1.39L36.26 1.39Q36.62 1.25 36.99 1.15L36.99 1.15L36.99 1.15Q37.37 1.06 37.73 0.99L37.73 0.99L37.73 0.99Q37.94 0.95 38.07 0.94L38.07 0.94L38.07 0.94Q38.21 0.92 38.33 0.91L38.33 0.91L38.33 0.91Q38.44 0.90 38.58 0.90L38.58 0.90L38.58 0.90Q38.71 0.91 38.93 0.91L38.93 0.91L38.93 0.91Q39.45 0.94 39.77 1.13L39.77 1.13L39.77 1.13Q40.08 1.32 40.24 1.62L40.24 1.62L40.24 1.62Q40.35 1.71 40.39 1.75L40.39 1.75L40.39 1.75Q40.50 1.90 40.48 2.10L40.48 2.10L40.48 2.10Q40.46 2.30 40.52 2.45L40.52 2.45L40.52 2.45Q40.59 2.60 40.66 2.74L40.66 2.74L40.66 2.74Q40.73 2.88 40.74 3.05L40.74 3.05L40.74 3.05Q40.74 3.28 40.61 3.49L40.61 3.49L40.61 3.49Q40.47 3.70 40.36 3.85L40.36 3.85L40.36 3.85Q40.21 4.09 40.01 4.28L40.01 4.28L40.01 4.28Q39.82 4.47 39.59 4.63L39.59 4.63ZM36.82 3.88L36.82 3.88L36.82 3.88Q36.79 4.16 36.77 4.45L36.77 4.45L36.77 4.45Q36.75 4.73 36.72 5.01L36.72 5.01L36.72 5.01Q36.78 5.01 36.82 5.00L36.82 5.00L36.82 5.00Q36.86 5.00 36.92 5.00L36.92 5.00L36.92 5.00Q36.99 4.96 37.08 4.91L37.08 4.91L37.08 4.91Q37.17 4.87 37.31 4.80L37.31 4.80L37.31 4.80Q37.52 4.69 37.81 4.52L37.81 4.52L37.81 4.52Q38.11 4.35 38.32 4.21L38.32 4.21L38.32 4.21Q38.49 4.10 38.72 3.95L38.72 3.95L38.72 3.95Q38.95 3.79 39.14 3.60L39.14 3.60L39.14 3.60Q39.33 3.42 39.42 3.18L39.42 3.18L39.42 3.18Q39.52 2.95 39.41 2.69L39.41 2.69L39.41 2.69Q39.35 2.58 39.33 2.53L39.33 2.53L39.33 2.53Q39.13 2.45 38.88 2.40L38.88 2.40L38.88 2.40Q38.63 2.35 38.54 2.32L38.54 2.32L38.54 2.32Q38.12 2.25 37.65 2.23L37.65 2.23L37.65 2.23Q37.17 2.21 36.79 2.32L36.79 2.32L36.79 2.32Q36.81 2.35 36.82 2.37L36.82 2.37L36.82 2.37Q36.83 2.39 36.85 2.42L36.85 2.42L36.81 2.46L36.81 2.46Q36.83 2.58 36.87 2.68L36.87 2.68L36.87 2.68Q36.90 2.79 36.92 2.90L36.92 2.90L36.92 2.90Q36.95 3.14 36.90 3.39L36.90 3.39L36.90 3.39Q36.85 3.64 36.82 3.88ZM39.82 3.86L39.82 3.86L39.82 3.86Q39.79 3.79 39.77 3.72L39.77 3.72L39.77 3.72Q39.75 3.65 39.72 3.58L39.72 3.58L39.72 3.58Q39.48 3.86 39.16 4.12L39.16 4.12L39.16 4.12Q38.85 4.38 38.51 4.62L38.51 4.62L38.51 4.62Q38.95 4.47 39.33 4.28L39.33 4.28L39.33 4.28Q39.70 4.10 39.82 3.86ZM47.36 1.39L47.24 1.51L47.24 1.51Q47.26 3.00 47.40 4.43L47.40 4.43L47.40 4.43Q47.54 5.87 47.71 7.31L47.71 7.31L47.71 7.31Q47.73 7.41 47.78 7.79L47.78 7.79L47.78 7.79Q47.84 8.18 47.89 8.64L47.89 8.64L48.06 8.47L48.06 8.47Q48.09 8.60 48.14 8.73L48.14 8.73L48.14 8.73Q48.19 8.86 48.19 8.99L48.19 8.99L48.19 8.99Q48.17 9.14 48.11 9.28L48.11 9.28L48.11 9.28Q48.05 9.41 47.95 9.53L47.95 9.53L47.95 9.53Q47.95 9.73 47.94 9.88L47.94 9.88L47.94 9.88Q47.92 10.04 47.88 10.11L47.88 10.11L47.88 10.11Q47.84 10.16 47.73 10.31L47.73 10.31L47.73 10.31Q47.61 10.46 47.48 10.60L47.48 10.60L47.48 10.60Q47.35 10.74 47.21 10.81L47.21 10.81L47.21 10.81Q47.07 10.88 46.98 10.79L46.98 10.79L46.98 10.79Q46.90 10.70 46.83 10.53L46.83 10.53L46.79 10.57L46.79 10.57Q46.68 10.64 46.55 10.72L46.55 10.72L46.55 10.72Q46.42 10.79 46.27 10.88L46.27 10.88L46.27 10.88Q45.92 11.20 45.47 11.55L45.47 11.55L45.47 11.55Q45.01 11.90 44.53 12.17L44.53 12.17L44.53 12.17Q44.06 12.45 43.60 12.58L43.60 12.58L43.60 12.58Q43.15 12.71 42.78 12.60L42.78 12.60L42.78 12.60Q42.50 12.50 42.39 12.30L42.39 12.30L42.39 12.30Q42.27 12.10 42.14 11.87L42.14 11.87L42.14 11.87Q42.17 11.58 42.44 11.32L42.44 11.32L42.44 11.32Q42.71 11.06 42.98 10.99L42.98 10.99L43.04 10.99L43.05 10.99L43.05 11.00L43.05 11.00Q43.15 11.03 43.24 11.07L43.24 11.07L43.24 11.07Q43.33 11.12 43.44 11.13L43.44 11.13L43.44 11.13Q43.72 11.16 44.11 11.07L44.11 11.07L44.11 11.07Q44.49 10.98 44.88 10.84L44.88 10.84L44.88 10.84Q45.28 10.70 45.65 10.54L45.65 10.54L45.65 10.54Q46.02 10.39 46.28 10.26L46.28 10.26L46.28 10.26Q46.34 10.15 46.38 10.04L46.38 10.04L46.38 10.04Q46.42 9.94 46.45 9.91L46.45 9.91L46.45 9.91Q46.38 9.38 46.33 8.86L46.33 8.86L46.33 8.86Q46.28 8.33 46.26 7.80L46.26 7.80L46.26 7.80Q46.20 7.55 46.15 7.28L46.15 7.28L46.15 7.28Q46.10 7.01 46.07 6.75L46.07 6.75L46.07 6.75Q46.05 6.79 46.00 6.83L46.00 6.83L46.00 6.83Q45.96 6.87 45.93 6.90L45.93 6.90L45.93 6.90Q45.67 6.76 45.39 6.45L45.39 6.45L45.39 6.45Q44.98 6.12 44.65 5.67L44.65 5.67L44.65 5.67Q44.32 5.22 44.03 4.82L44.03 4.82L44.03 4.82Q43.57 4.23 43.14 3.63L43.14 3.63L43.14 3.63Q42.71 3.02 42.27 2.44L42.27 2.44L42.22 2.46L42.22 2.46Q42.17 2.41 42.11 2.38L42.11 2.38L42.11 2.38Q42.06 2.35 42.01 2.28L42.01 2.28L42.01 2.28Q42.04 2.07 42.18 1.92L42.18 1.92L42.18 1.92Q42.31 1.76 42.46 1.62L42.46 1.62L42.46 1.62Q42.77 1.36 42.88 1.36L42.88 1.36L42.88 1.36Q43.08 1.23 43.26 1.25L43.26 1.25L43.26 1.25Q43.75 2.14 44.37 2.92L44.37 2.92L44.37 2.92Q44.98 3.70 45.64 4.48L45.64 4.48L45.64 4.48Q45.75 4.63 45.89 4.77L45.89 4.77L45.89 4.77Q46.02 4.91 46.14 5.07L46.14 5.07L46.14 5.07Q46.23 4.70 46.41 4.45L46.41 4.45L46.41 4.45Q46.37 3.86 46.34 3.28L46.34 3.28L46.34 3.28Q46.31 2.69 46.31 2.10L46.31 2.10L46.31 2.10Q46.30 2.09 46.30 2.07L46.30 2.07L46.31 2.06L46.31 2.06Q46.33 1.95 46.41 1.80L46.41 1.80L46.41 1.80Q46.49 1.65 46.61 1.53L46.61 1.53L46.61 1.53Q46.73 1.40 46.88 1.31L46.88 1.31L46.88 1.31Q47.03 1.22 47.15 1.22L47.15 1.22L47.15 1.22Q47.18 1.19 47.19 1.17L47.19 1.17L47.19 1.17Q47.21 1.15 47.24 1.12L47.24 1.12L47.24 1.25L47.24 1.25Q47.29 1.34 47.36 1.39L47.36 1.39ZM53.07 3.44L53.58 2.97L53.58 2.97Q53.61 2.90 53.64 2.83L53.64 2.83L53.64 2.83Q53.68 2.77 53.70 2.70L53.70 2.70L53.70 2.70Q53.91 2.27 54.15 1.87L54.15 1.87L54.15 1.87Q54.39 1.47 54.73 1.12L54.73 1.12L54.73 1.12Q54.82 1.01 54.93 0.93L54.93 0.93L54.93 0.93Q55.03 0.85 55.16 0.78L55.16 0.78L55.16 0.78Q55.19 0.77 55.22 0.77L55.22 0.77L55.22 0.77Q55.26 0.77 55.29 0.76L55.29 0.76L55.29 0.76Q55.33 0.74 55.37 0.74L55.37 0.74L55.37 0.74Q55.41 0.77 55.44 0.81L55.44 0.81L55.44 0.81Q55.47 0.97 55.39 1.24L55.39 1.24L55.39 1.24Q55.31 1.51 55.20 1.78L55.20 1.78L55.20 1.78Q55.31 1.97 55.39 2.46L55.39 2.46L55.39 2.46Q55.47 2.94 55.51 3.48L55.51 3.48L55.51 3.48Q55.55 4.02 55.58 4.51L55.58 4.51L55.58 4.51Q55.61 5.00 55.62 5.22L55.62 5.22L55.62 5.22Q55.66 5.92 55.71 6.62L55.71 6.62L55.71 6.62Q55.76 7.32 55.89 8.01L55.89 8.01L55.90 8.02L55.90 8.02Q56.03 8.46 56.22 8.85L56.22 8.85L56.22 8.85Q56.41 9.24 56.56 9.65L56.56 9.65L56.56 9.65Q56.59 9.67 56.59 9.69L56.59 9.69L56.59 9.69Q56.60 9.70 56.63 9.73L56.63 9.73L56.63 9.73Q56.60 9.76 56.59 9.77L56.59 9.77L56.59 9.77Q56.57 9.77 56.56 9.79L56.56 9.79L56.56 9.79Q56.53 9.88 56.48 9.97L56.48 9.97L56.48 9.97Q56.56 10.15 56.70 10.32L56.70 10.32L56.60 10.42L56.60 10.42Q56.70 10.68 56.78 10.96L56.78 10.96L56.78 10.96Q56.87 11.24 56.92 11.52L56.92 11.52L56.92 11.52Q56.90 11.61 56.78 11.77L56.78 11.77L56.78 11.77Q56.67 11.94 56.53 12.09L56.53 12.09L56.53 12.09Q56.38 12.24 56.23 12.32L56.23 12.32L56.23 12.32Q56.08 12.40 56 12.32L56 12.32L56 12.33L56 12.31L56 12.31Q55.71 11.68 55.49 11.03L55.49 11.03L55.49 11.03Q55.27 10.37 55.03 9.74L55.03 9.74L55.03 9.74Q54.91 9.42 54.76 9.06L54.76 9.06L54.76 9.06Q54.61 8.69 54.50 8.32L54.50 8.32L54.50 8.32Q54.38 7.95 54.29 7.57L54.29 7.57L54.29 7.57Q54.21 7.18 54.21 6.82L54.21 6.82L54.21 6.82Q54.18 6.76 54.18 6.73L54.18 6.73L54.22 6.69L54.22 6.69Q54.29 6.51 54.43 6.33L54.43 6.33L54.43 6.33Q54.42 6.23 54.40 6.13L54.40 6.13L54.40 6.13Q54.39 6.03 54.38 5.92L54.38 5.92L54.38 5.92Q54.29 5.47 54.22 5.02L54.22 5.02L54.22 5.02Q54.15 4.56 54.11 4.10L54.11 4.10L54.11 4.10Q53.93 4.47 53.76 4.84L53.76 4.84L53.76 4.84Q53.59 5.22 53.48 5.59L53.48 5.59L53.48 5.59Q53.37 5.96 53.32 6.32L53.32 6.32L53.32 6.32Q53.27 6.68 53.33 7.01L53.33 7.01L53.45 6.93L53.45 6.93Q53.34 7.24 53.15 7.47L53.15 7.47L53.15 7.47Q52.96 7.70 52.68 7.85L52.68 7.85L52.68 7.85Q52.61 7.88 52.55 7.91L52.55 7.91L52.55 7.91Q52.49 7.94 52.42 7.87L52.42 7.87L52.42 7.87Q52.37 7.71 52.37 7.57L52.37 7.57L52.32 7.63L52.32 7.63Q52.32 7.66 52.35 7.69L52.35 7.69L52.30 7.73L52.30 7.73Q52.29 7.74 52.29 7.78L52.29 7.78L52.29 7.78Q52.25 7.84 52.14 7.99L52.14 7.99L52.14 7.99Q52.02 8.13 51.89 8.27L51.89 8.27L51.89 8.27Q51.76 8.41 51.62 8.48L51.62 8.48L51.62 8.48Q51.48 8.55 51.39 8.47L51.39 8.47L51.39 8.47Q51.09 7.77 50.81 7.05L50.81 7.05L50.81 7.05Q50.54 6.33 50.32 5.57L50.32 5.57L50.32 5.57Q50.25 6.03 50.20 6.49L50.20 6.49L50.20 6.49Q50.15 6.94 50.11 7.41L50.11 7.41L50.11 7.41Q50.11 8.12 50.12 8.81L50.12 8.81L50.12 8.81Q50.13 9.51 50.13 10.22L50.13 10.22L50.13 10.22Q50.13 10.25 50.15 10.25L50.15 10.25L50.13 10.26L50.13 10.26Q50.12 10.33 50.04 10.46L50.04 10.46L50.04 10.46Q49.95 10.60 49.83 10.73L49.83 10.73L49.83 10.73Q49.71 10.86 49.59 10.98L49.59 10.98L49.59 10.98Q49.46 11.09 49.35 11.10L49.35 11.10L49.35 11.12L49.35 11.12Q49.31 11.16 49.22 11.25L49.22 11.25L49.22 11.25Q49.13 11.34 49.02 11.42L49.02 11.42L49.02 11.42Q48.92 11.51 48.82 11.54L48.82 11.54L48.82 11.54Q48.72 11.58 48.65 11.51L48.65 11.51L48.65 11.51Q48.57 11.17 48.55 10.72L48.55 10.72L48.55 10.72Q48.52 10.26 48.55 9.72L48.55 9.72L48.55 9.72Q48.58 9.18 48.66 8.60L48.66 8.60L48.66 8.60Q48.73 8.01 48.85 7.42L48.85 7.42L48.85 7.42Q48.83 7.06 48.83 6.71L48.83 6.71L48.83 6.71Q48.83 6.34 48.83 5.98L48.83 5.98L48.83 5.98Q48.83 5.67 48.84 5.38L48.84 5.38L48.84 5.38Q48.85 5.08 48.91 4.82L48.91 4.82L48.91 4.82Q48.97 4.56 49.11 4.33L49.11 4.33L49.11 4.33Q49.25 4.10 49.52 3.91L49.52 3.91L49.52 3.91Q49.55 3.75 49.58 3.61L49.58 3.61L49.58 3.61Q49.62 3.47 49.66 3.32L49.66 3.32L49.66 3.32Q49.69 3.23 49.71 3.15L49.71 3.15L49.71 3.15Q49.74 3.07 49.77 2.98L49.77 2.98L49.77 2.98Q49.76 2.91 49.75 2.86L49.75 2.86L49.75 2.86Q49.74 2.80 49.74 2.73L49.74 2.73L49.91 2.59L49.91 2.59Q49.94 2.45 49.95 2.32L49.95 2.32L49.95 2.32Q49.95 2.20 49.91 2.06L49.91 2.06L50.82 1.19L50.82 1.19Q50.89 1.40 50.88 1.59L50.88 1.59L50.88 1.59Q50.86 1.78 50.79 1.97L50.79 1.97L50.92 1.97L50.92 1.97Q51.20 2.69 51.35 3.43L51.35 3.43L51.35 3.43Q51.51 4.17 51.70 4.91L51.70 4.91L51.70 4.91Q51.79 5.19 51.86 5.45L51.86 5.45L51.86 5.45Q51.94 5.71 52.01 5.95L52.01 5.95L52.01 5.95Q52.09 6.24 52.22 6.48L52.22 6.48L52.22 6.45L52.22 6.45Q52.26 6.26 52.31 6.08L52.31 6.08L52.31 6.08Q52.36 5.89 52.43 5.70L52.43 5.70L52.43 5.70Q52.50 5.49 52.58 5.27L52.58 5.27L52.58 5.27Q52.67 5.05 52.75 4.84L52.75 4.84L52.75 4.84Q52.77 4.83 52.76 4.82L52.76 4.82L52.76 4.82Q52.75 4.82 52.77 4.80L52.77 4.80L52.77 4.80Q52.81 4.68 52.88 4.50L52.88 4.50L52.88 4.50Q52.95 4.33 53.01 4.14L53.01 4.14L53.01 4.14Q53.07 3.95 53.10 3.77L53.10 3.77L53.10 3.77Q53.13 3.58 53.07 3.44L53.07 3.44ZM53.23 7.03L53.23 7.03L53.23 7.03Q53.23 7.04 53.22 7.06L53.22 7.06L53.22 7.06Q53.21 7.07 53.21 7.10L53.21 7.10L53.30 7.03L53.23 7.03ZM55.37 0.74L55.37 0.74L55.37 0.74Q55.36 0.74 55.36 0.73L55.36 0.73L55.37 0.74ZM59.78 2.10L59.78 2.10L59.78 2.10Q59.81 2.03 59.92 1.89L59.92 1.89L59.92 1.89Q60.03 1.75 60.17 1.61L60.17 1.61L60.17 1.61Q60.31 1.47 60.45 1.37L60.45 1.37L60.45 1.37Q60.58 1.26 60.65 1.29L60.65 1.29L60.65 1.29Q60.90 1.01 61.26 0.95L61.26 0.95L61.26 0.95Q61.33 0.97 61.35 1.04L61.35 1.04L61.35 1.04Q61.32 1.19 61.26 1.31L61.26 1.31L61.26 1.31Q61.19 1.43 61.11 1.54L61.11 1.54L61.11 1.58L61.11 1.58Q61.08 1.75 61.08 1.92L61.08 1.92L61.08 1.92Q61.08 2.09 61.05 2.24L61.05 2.24L61.05 2.24Q61.10 2.07 61.23 1.90L61.23 1.90L61.23 1.90Q61.36 1.74 61.52 1.60L61.52 1.60L61.52 1.60Q61.68 1.47 61.84 1.41L61.84 1.41L61.84 1.41Q62.01 1.34 62.12 1.39L62.12 1.39L62.12 1.39Q62.16 1.40 62.28 1.62L62.28 1.62L62.28 1.62Q62.40 1.83 62.55 2.13L62.55 2.13L62.55 2.13Q62.69 2.42 62.85 2.74L62.85 2.74L62.85 2.74Q63.01 3.05 63.13 3.29L63.13 3.29L63.13 3.29Q63.25 3.53 63.36 3.77L63.36 3.77L63.36 3.77Q63.84 4.65 64.30 5.51L64.30 5.51L64.30 5.51Q64.76 6.37 65.30 7.21L65.30 7.21L65.30 7.21Q65.45 7.46 65.67 7.79L65.67 7.79L65.67 7.79Q65.88 8.12 66.11 8.47L66.11 8.47L66.11 8.47Q66.35 8.82 66.55 9.17L66.55 9.17L66.55 9.17Q66.75 9.52 66.86 9.81L66.86 9.81L66.91 9.86L66.86 9.90L66.86 9.90Q66.84 10.02 66.72 10.19L66.72 10.19L66.72 10.19Q66.60 10.36 66.45 10.49L66.45 10.49L66.45 10.49Q66.30 10.63 66.16 10.69L66.16 10.69L66.16 10.69Q66.02 10.75 65.95 10.68L65.95 10.68L65.95 10.68Q65.81 10.54 65.69 10.41L65.69 10.41L65.69 10.41Q65.58 10.28 65.46 10.14L65.46 10.14L65.46 10.14Q65.34 10.22 65.18 10.26L65.18 10.26L65.11 10.33L65.11 10.33Q65.06 10.28 65.03 10.23L65.03 10.23L65.03 10.23Q64.90 10.19 64.78 10.07L64.78 10.07L64.78 10.07Q64.65 9.95 64.54 9.82L64.54 9.82L64.54 9.82Q64.43 9.69 64.33 9.55L64.33 9.55L64.33 9.55Q64.23 9.41 64.16 9.31L64.16 9.31L64.16 9.31Q63.73 8.76 63.31 8.20L63.31 8.20L63.31 8.20Q62.90 7.63 62.52 7.04L62.52 7.04L62.52 7.04Q62.27 7.20 62.00 7.34L62.00 7.34L62.00 7.34Q61.73 7.49 61.47 7.61L61.47 7.61L61.47 7.61Q61.22 7.73 61.02 7.81L61.02 7.81L61.02 7.81Q60.82 7.90 60.69 7.94L60.69 7.94L61.24 7.11L61.24 7.11Q60.80 7.31 60.38 7.55L60.38 7.55L60.38 7.55Q59.96 7.78 59.56 7.98L59.56 7.98L59.56 7.98Q59.47 8.36 59.39 8.73L59.39 8.73L59.39 8.73Q59.32 9.10 59.25 9.46L59.25 9.46L59.25 9.46Q59.18 9.83 59.13 10.14L59.13 10.14L59.13 10.14Q59.08 10.44 58.94 10.72L58.94 10.72L58.94 10.74L58.93 10.74L58.93 10.74Q58.88 10.82 58.84 10.91L58.84 10.91L58.84 10.91Q58.79 11.00 58.72 11.09L58.72 11.09L58.72 11.09Q58.67 11.13 58.58 11.22L58.58 11.22L58.58 11.22Q58.49 11.31 58.39 11.40L58.39 11.40L58.39 11.40Q58.28 11.48 58.18 11.52L58.18 11.52L58.18 11.52Q58.09 11.55 58.02 11.48L58.02 11.48L58.02 11.48Q57.99 11.16 58.02 10.84L58.02 10.84L58.02 10.84Q58.04 10.53 58.11 10.21L58.11 10.21L58.11 10.21Q57.93 10.50 57.58 10.67L57.58 10.67L57.58 10.67Q57.51 10.70 57.45 10.72L57.45 10.72L57.45 10.72Q57.39 10.75 57.32 10.68L57.32 10.68L57.32 10.68Q57.26 10.60 57.28 10.37L57.28 10.37L57.28 10.37Q57.30 10.15 57.37 9.87L57.37 9.87L57.37 9.87Q57.43 9.59 57.53 9.28L57.53 9.28L57.53 9.28Q57.62 8.97 57.72 8.70L57.72 8.70L57.72 8.70Q57.82 8.43 57.90 8.23L57.90 8.23L57.90 8.23Q57.97 8.04 57.99 7.99L57.99 7.99L57.99 7.99Q58.03 7.88 58.08 7.76L58.08 7.76L58.08 7.76Q58.13 7.64 58.17 7.53L58.17 7.53L58.17 7.53Q58.20 7.46 58.21 7.39L58.21 7.39L58.21 7.39Q58.23 7.32 58.25 7.25L58.25 7.25L58.25 7.25Q58.53 6.10 58.85 4.94L58.85 4.94L58.85 4.94Q59.16 3.78 59.57 2.65L59.57 2.65L59.54 2.66L59.54 2.66Q59.57 2.60 59.59 2.55L59.59 2.55L59.59 2.55Q59.61 2.51 59.64 2.45L59.64 2.45L59.64 2.45Q59.67 2.37 59.71 2.28L59.71 2.28L59.71 2.28Q59.75 2.18 59.78 2.10ZM61.42 2.60L61.42 2.60L61.42 2.60Q60.86 3.60 60.52 4.67L60.52 4.67L60.52 4.67Q60.17 5.74 59.86 6.83L59.86 6.83L59.86 6.83Q60.24 6.62 60.66 6.47L60.66 6.47L60.66 6.47Q61.07 6.31 61.52 6.16L61.52 6.16L61.52 6.16Q61.61 6.13 61.70 6.10L61.70 6.10L61.70 6.10Q61.80 6.06 61.91 6.03L61.91 6.03L61.91 6.03Q61.88 6.01 61.88 5.98L61.88 5.98L61.88 5.98Q61.77 5.80 61.63 5.56L61.63 5.56L61.63 5.56Q61.49 5.33 61.38 5.09L61.38 5.09L61.38 5.09Q61.26 4.84 61.19 4.59L61.19 4.59L61.19 4.59Q61.12 4.34 61.17 4.10L61.17 4.10L61.17 4.10Q61.21 4.00 61.30 3.86L61.30 3.86L61.30 3.86Q61.39 3.72 61.50 3.61L61.50 3.61L61.50 3.61Q61.46 3.49 61.42 3.37L61.42 3.37L61.42 3.37Q61.39 3.25 61.36 3.12L61.36 3.12L61.36 3.12Q61.36 2.98 61.50 2.77L61.50 2.77L61.42 2.60ZM68.78 0.70L68.74 0.74L68.74 0.74Q68.77 0.81 68.79 0.92L68.79 0.92L68.79 0.92Q68.81 1.02 68.84 1.06L68.84 1.06L68.84 1.06Q68.91 1.27 68.98 1.41L68.98 1.41L68.98 1.41Q69.02 1.40 69.05 1.39L69.05 1.39L69.05 1.39Q69.09 1.39 69.13 1.39L69.13 1.39L69.13 1.39Q69.15 1.36 69.20 1.30L69.20 1.30L69.20 1.30Q69.20 1.33 69.21 1.35L69.21 1.35L69.21 1.35Q69.22 1.37 69.22 1.40L69.22 1.40L69.22 1.40Q69.33 1.57 69.38 1.79L69.38 1.79L69.38 1.79Q69.44 2.02 69.48 2.23L69.48 2.23L69.48 2.23Q69.72 2.84 70.02 3.42L70.02 3.42L70.02 3.42Q70.32 3.99 70.64 4.58L70.64 4.58L70.64 4.58Q70.84 4.94 71.04 5.32L71.04 5.32L71.04 5.32Q71.23 5.70 71.44 6.06L71.44 6.06L71.44 6.06Q71.72 6.45 72.03 6.84L72.03 6.84L72.03 6.84Q72.34 7.22 72.65 7.59L72.65 7.59L72.65 7.59Q72.62 7.18 72.63 6.78L72.63 6.78L72.63 6.78Q72.63 6.37 72.62 5.96L72.62 5.96L72.62 5.96Q72.60 5.64 72.57 5.19L72.57 5.19L72.57 5.19Q72.53 4.73 72.50 4.22L72.50 4.22L72.50 4.22Q72.46 3.71 72.46 3.19L72.46 3.19L72.46 3.19Q72.46 2.66 72.53 2.18L72.53 2.18L72.53 2.18Q72.60 1.69 72.77 1.30L72.77 1.30L72.77 1.30Q72.93 0.91 73.21 0.67L73.21 0.67L73.21 0.67Q73.30 0.59 73.42 0.51L73.42 0.51L73.42 0.51Q73.53 0.43 73.67 0.46L73.67 0.46L73.67 0.46Q73.75 0.52 73.76 0.73L73.76 0.73L73.76 0.73Q73.77 0.95 73.75 1.21L73.75 1.21L73.75 1.21Q73.72 1.47 73.68 1.71L73.68 1.71L73.68 1.71Q73.64 1.96 73.63 2.07L73.63 2.07L73.63 2.07Q73.64 2.39 73.65 2.63L73.65 2.63L73.65 2.63Q73.65 2.87 73.67 2.90L73.67 2.90L73.67 2.90Q73.74 3.72 73.87 4.54L73.87 4.54L73.87 4.54Q74.00 5.36 74.13 6.18L74.13 6.18L74.13 6.18Q74.26 7 74.36 7.82L74.36 7.82L74.36 7.82Q74.47 8.64 74.48 9.46L74.48 9.46L74.48 9.46Q74.44 9.59 74.26 9.84L74.26 9.84L74.26 9.84Q74.28 9.87 74.30 9.87L74.30 9.87L74.27 9.90L74.27 9.90Q74.28 10.04 74.19 10.19L74.19 10.19L74.19 10.19Q74.10 10.33 73.97 10.46L73.97 10.46L73.97 10.46Q73.84 10.58 73.68 10.67L73.68 10.67L73.68 10.67Q73.53 10.75 73.40 10.77L73.40 10.77L73.40 10.77Q73.33 10.70 73.26 10.63L73.26 10.63L73.26 10.63Q73.19 10.57 73.12 10.50L73.12 10.50L73.12 10.50Q73.05 10.44 72.97 10.35L72.97 10.35L72.97 10.35Q72.93 10.30 72.89 10.26L72.89 10.26L72.89 10.26Q72.86 10.21 72.83 10.15L72.83 10.15L72.83 10.15Q72.58 9.86 72.35 9.55L72.35 9.55L72.35 9.55Q72.13 9.25 71.89 8.95L71.89 8.95L71.89 8.95Q71.71 8.75 71.54 8.51L71.54 8.51L71.54 8.51Q71.48 8.46 71.47 8.41L71.47 8.41L71.47 8.41Q71.15 8.01 70.84 7.60L70.84 7.60L70.84 7.60Q70.53 7.20 70.25 6.76L70.25 6.76L70.25 6.76Q70.03 6.43 69.85 6.06L69.85 6.06L69.85 6.06Q69.66 5.70 69.48 5.33L69.48 5.33L69.48 5.33Q69.38 5.15 69.29 4.98L69.29 4.98L69.29 4.98Q69.20 4.82 69.12 4.63L69.12 4.63L69.12 4.63Q69.20 5.18 69.27 5.77L69.27 5.77L69.27 5.77Q69.34 6.36 69.38 6.92L69.38 6.92L69.38 6.92Q69.43 7.49 69.43 8.03L69.43 8.03L69.43 8.03Q69.44 8.57 69.40 9.03L69.40 9.03L69.40 9.03Q69.36 9.21 69.22 9.39L69.22 9.39L69.22 9.39Q69.08 9.58 68.89 9.72L68.89 9.72L68.89 9.72Q68.87 10.07 68.74 10.37L68.74 10.37L68.74 10.37Q68.61 10.68 68.35 10.95L68.35 10.95L68.35 10.95Q68.24 11.06 68.11 11.14L68.11 11.14L68.11 11.14Q67.98 11.23 67.83 11.24L67.83 11.24L67.83 11.24Q67.66 11.20 67.65 10.98L67.65 10.98L67.65 10.98Q67.63 10.75 67.63 10.63L67.63 10.63L67.63 9.10L67.63 9.10Q67.63 8.75 67.64 8.40L67.64 8.40L67.64 8.40Q67.65 8.05 67.65 7.70L67.65 7.70L67.63 7.71L67.63 7.71Q67.27 6.48 67.26 5.25L67.26 5.25L67.26 5.25Q67.26 4.02 67.31 2.76L67.31 2.76L67.31 2.76Q67.31 2.65 67.30 2.41L67.30 2.41L67.30 2.41Q67.30 2.18 67.30 1.92L67.30 1.92L67.30 1.92Q67.30 1.64 67.32 1.37L67.32 1.37L67.32 1.37Q67.34 1.09 67.40 0.91L67.40 0.91L67.40 0.91Q67.40 0.88 67.39 0.85L67.39 0.85L67.39 0.85Q67.38 0.81 67.38 0.78L67.38 0.78L67.48 0.73L67.48 0.73Q67.56 0.62 67.70 0.46L67.70 0.46L67.70 0.46Q67.83 0.31 67.96 0.19L67.96 0.19L67.96 0.19Q68.10 0.07 68.20 0.04L68.20 0.04L68.20 0.04Q68.31 0.01 68.33 0.14L68.33 0.14L68.33 0.14Q68.36 0.29 68.38 0.44L68.38 0.44L68.38 0.44Q68.39 0.59 68.42 0.74L68.42 0.74L68.42 0.74Q68.57 0.66 68.73 0.67L68.73 0.67L68.73 0.67Q68.74 0.69 68.75 0.69L68.75 0.69L68.75 0.69Q68.77 0.69 68.78 0.70L68.78 0.70ZM84.95 1.30L85.18 1.54L85.18 1.54Q85.25 1.41 85.32 1.29L85.32 1.29L85.32 1.29Q85.40 1.18 85.51 1.06L85.51 1.06L85.51 1.06Q85.55 1.02 85.50 1.14L85.50 1.14L85.50 1.14Q85.46 1.26 85.46 1.33L85.46 1.33L85.46 1.33Q85.43 1.46 85.44 1.69L85.44 1.69L85.44 1.69Q85.44 1.93 85.46 2.04L85.46 2.04L85.46 2.04Q85.48 2.42 85.54 2.79L85.54 2.79L85.54 2.79Q85.60 3.15 85.64 3.51L85.64 3.51L85.64 3.51Q85.64 3.53 85.65 3.53L85.65 3.53L85.64 3.54L85.64 3.54Q85.64 3.56 85.64 3.56L85.64 3.56L85.64 3.56Q85.65 3.57 85.65 3.58L85.65 3.58L85.65 3.58Q85.64 3.67 85.53 3.84L85.53 3.84L85.53 3.84Q85.41 4.00 85.27 4.16L85.27 4.16L85.27 4.16Q85.12 4.31 84.97 4.40L84.97 4.40L84.97 4.40Q84.83 4.48 84.73 4.40L84.73 4.40L84.73 4.38L84.73 4.38Q84.46 3.82 83.95 3.37L83.95 3.37L83.95 3.37Q83.44 2.93 82.81 2.73L82.81 2.73L82.38 3.14L82.38 3.14Q82.33 3.05 82.33 3.04L82.33 3.04L82.33 3.04Q82.32 3.02 82.14 3.09L82.14 3.09L82.14 3.09Q81.68 3.46 81.45 3.96L81.45 3.96L81.45 3.96Q81.23 4.45 81.16 5.00L81.16 5.00L81.16 5.00Q81.10 5.56 81.14 6.14L81.14 6.14L81.14 6.14Q81.19 6.72 81.26 7.24L81.26 7.24L81.26 7.24Q81.28 7.38 81.28 7.52L81.28 7.52L81.28 7.52Q81.28 7.64 81.31 7.77L81.31 7.77L81.31 7.77Q81.37 7.95 81.46 8.11L81.46 8.11L81.46 8.11Q81.55 8.27 81.62 8.46L81.62 8.46L81.62 8.46Q81.62 8.47 81.65 8.50L81.65 8.50L81.63 8.51L81.63 8.51Q81.63 8.60 81.56 8.74L81.56 8.74L81.56 8.74Q82.22 9.03 83.00 9.02L83.00 9.02L83.00 9.02Q83.78 9.02 84.55 8.69L84.55 8.69L84.55 8.69Q84.70 8.64 84.84 8.48L84.84 8.48L84.84 8.48Q84.98 8.32 85.11 8.14L85.11 8.14L85.11 8.14Q85.25 7.97 85.36 7.82L85.36 7.82L85.36 7.82Q85.47 7.67 85.54 7.64L85.54 7.64L85.54 7.64Q85.58 7.63 85.53 7.73L85.53 7.73L85.53 7.73Q85.48 7.83 85.43 7.90L85.43 7.90L86.18 7.39L86.18 7.39Q86.16 7.46 86.11 7.55L86.11 7.55L86.11 7.55Q86.07 7.63 86.04 7.66L86.04 7.66L86.04 7.66Q85.95 7.80 85.90 7.85L85.90 7.85L85.90 7.85Q85.85 7.91 85.81 7.95L85.81 7.95L85.81 7.95Q85.78 7.99 85.74 8.04L85.74 8.04L85.74 8.04Q85.69 8.09 85.60 8.20L85.60 8.20L85.60 8.20Q85.26 8.60 84.90 8.96L84.90 8.96L84.90 8.96Q84.53 9.32 84.07 9.53L84.07 9.53L84.07 9.53Q83.45 9.81 82.73 9.90L82.73 9.90L82.73 9.90Q82.00 9.98 81.32 9.83L81.32 9.83L81.32 9.83Q80.64 9.67 80.09 9.26L80.09 9.26L80.09 9.26Q79.55 8.85 79.30 8.13L79.30 8.13L79.30 8.13Q79.03 7.39 79.02 6.59L79.02 6.59L79.02 6.59Q79.00 5.78 79.20 5.01L79.20 5.01L79.20 5.01Q79.41 4.24 79.82 3.55L79.82 3.55L79.82 3.55Q80.23 2.86 80.82 2.35L80.82 2.35L80.82 2.35Q81.23 2.00 81.70 1.84L81.70 1.84L81.70 1.84Q82.17 1.68 82.66 1.68L82.66 1.68L82.66 1.68Q83.15 1.68 83.62 1.82L83.62 1.82L83.62 1.82Q84.10 1.96 84.50 2.24L84.50 2.24L84.50 2.24Q84.53 1.99 84.64 1.75L84.64 1.75L84.64 1.75Q84.74 1.51 84.95 1.30L84.95 1.30ZM86.24 7.35L86.18 7.39L86.18 7.39Q86.25 7.24 86.24 7.35L86.24 7.35ZM93.48 0.95L93.48 1.08L93.48 1.08Q93.49 1.09 93.49 1.11L93.49 1.11L93.49 1.11Q93.49 1.12 93.51 1.15L93.51 1.15L93.51 1.27L93.88 1.05L93.88 1.05Q93.86 1.12 93.80 1.23L93.80 1.23L93.80 1.23Q93.87 1.50 93.87 1.79L93.87 1.79L93.87 1.79Q93.87 2.09 93.84 2.38L93.84 2.38L93.84 2.38Q93.81 2.67 93.78 2.97L93.78 2.97L93.78 2.97Q93.74 3.26 93.74 3.53L93.74 3.53L93.74 3.53Q93.72 4.31 93.72 5.08L93.72 5.08L93.72 5.08Q93.72 5.85 93.73 6.62L93.73 6.62L93.73 6.62Q93.74 6.75 93.75 6.87L93.75 6.87L93.75 6.87Q93.76 6.99 93.79 7.10L93.79 7.10L93.79 7.10Q93.84 7.64 93.92 8.19L93.92 8.19L93.92 8.19Q94.00 8.74 94.09 9.27L94.09 9.27L94.09 9.27Q94.09 9.31 94.12 9.42L94.12 9.42L94.12 9.42Q94.18 9.62 94.22 9.81L94.22 9.81L94.22 9.81Q94.26 10.01 94.29 10.21L94.29 10.21L94.30 10.23L94.29 10.25L94.29 10.25Q94.29 10.26 94.30 10.27L94.30 10.27L94.30 10.27Q94.30 10.28 94.30 10.29L94.30 10.29L94.30 10.29Q94.29 10.37 94.18 10.54L94.18 10.54L94.18 10.54Q94.07 10.70 93.93 10.84L93.93 10.84L93.93 10.84Q93.79 10.99 93.65 11.08L93.65 11.08L93.65 11.08Q93.51 11.17 93.41 11.10L93.41 11.10L93.41 11.10Q93.38 11.10 93.38 11.13L93.38 11.13L93.38 11.13Q93.38 11.10 93.37 11.10L93.37 11.10L93.37 11.10Q93.37 11.09 93.37 11.07L93.37 11.07L93.37 11.07Q93.31 10.89 93.27 10.71L93.27 10.71L93.27 10.71Q93.23 10.53 93.18 10.35L93.18 10.35L93.18 10.35Q93.07 10.04 92.96 9.77L92.96 9.77L92.96 9.77Q92.89 9.79 92.82 9.74L92.82 9.74L92.81 9.76L92.81 9.73L92.81 9.73Q92.62 9.49 92.53 9.03L92.53 9.03L92.53 9.03Q92.43 8.57 92.37 8.06L92.37 8.06L92.37 8.06Q92.32 7.55 92.29 7.06L92.29 7.06L92.29 7.06Q92.26 6.58 92.23 6.29L92.23 6.29L92.37 6.17L92.37 6.17Q92.36 6.12 92.36 6.08L92.36 6.08L92.36 6.08Q92.36 6.02 92.34 5.96L92.34 5.96L92.34 5.96Q92.13 6.10 91.99 6.10L91.99 6.10L91.99 6.10Q91.50 6.12 91.05 6.13L91.05 6.13L91.05 6.13Q90.59 6.13 90.14 6.17L90.14 6.17L90.14 6.17Q89.68 6.20 89.22 6.26L89.22 6.26L89.22 6.26Q88.75 6.33 88.24 6.44L88.24 6.44L88.24 6.93L88.24 6.93Q88.24 7.13 88.21 7.51L88.21 7.51L88.21 7.51Q88.19 7.90 88.18 8.31L88.18 8.31L88.18 8.31Q88.17 8.72 88.22 9.09L88.22 9.09L88.22 9.09Q88.27 9.46 88.41 9.66L88.41 9.66L88.41 9.66Q88.42 9.67 88.47 9.67L88.47 9.67L88.35 9.80L88.35 9.80Q88.38 9.91 88.39 10.02L88.39 10.02L88.39 10.02Q88.40 10.12 88.41 10.23L88.41 10.23L88.41 10.23Q88.38 10.32 88.27 10.49L88.27 10.49L88.27 10.49Q88.16 10.65 88.02 10.80L88.02 10.80L88.02 10.80Q87.88 10.95 87.73 11.04L87.73 11.04L87.73 11.04Q87.58 11.13 87.50 11.06L87.50 11.06L87.49 11.06L87.49 11.05L87.49 11.05Q87.47 11.02 87.46 10.98L87.46 10.98L87.46 10.98Q87.44 10.95 87.43 10.92L87.43 10.92L87.43 10.92Q87.22 11.10 87.09 11.02L87.09 11.02L87.09 11.02Q87.07 11.05 87.07 11.05L87.07 11.05L87.07 10.95L87.07 10.95Q87.02 10.47 86.91 10.02L86.91 10.02L86.91 10.02Q86.80 9.56 86.74 9.07L86.74 9.07L86.74 9.07Q86.67 8.54 86.65 8.01L86.65 8.01L86.65 8.01Q86.63 7.48 86.62 6.94L86.62 6.94L86.62 6.94Q86.56 6.92 86.62 6.76L86.62 6.76L86.62 6.76Q86.62 5.32 86.79 3.92L86.79 3.92L86.79 3.92Q86.83 3.61 86.86 3.23L86.86 3.23L86.86 3.23Q86.90 2.84 86.97 2.46L86.97 2.46L86.97 2.46Q87.05 2.07 87.19 1.72L87.19 1.72L87.19 1.72Q87.33 1.37 87.57 1.13L87.57 1.13L87.57 1.13Q87.68 1.02 87.84 0.89L87.84 0.89L87.84 0.89Q88.00 0.76 88.19 0.78L88.19 0.78L88.19 0.78Q88.27 0.88 88.27 0.98L88.27 0.98L88.27 0.98Q88.38 0.87 88.51 0.76L88.51 0.76L88.51 0.76Q88.63 0.64 88.73 0.59L88.73 0.59L88.73 0.59Q88.83 0.53 88.88 0.56L88.88 0.56L88.88 0.56Q88.93 0.59 88.89 0.76L88.89 0.76L88.89 0.76Q88.86 0.81 88.83 0.86L88.83 0.86L88.83 0.86Q88.80 0.91 88.77 0.97L88.77 0.97L88.77 0.97Q88.73 1.06 88.68 1.17L88.68 1.17L88.68 1.17Q88.63 1.27 88.61 1.40L88.61 1.40L88.61 1.40Q88.63 1.47 88.69 1.53L88.69 1.53L88.69 1.53Q88.75 1.60 88.80 1.65L88.80 1.65L88.49 1.95L88.49 1.95Q88.35 2.73 88.30 3.71L88.30 3.71L88.30 3.71Q88.26 4.69 88.24 5.56L88.24 5.56L88.24 5.56Q88.42 5.47 88.61 5.42L88.61 5.42L88.61 5.42Q88.79 5.38 88.98 5.33L88.98 5.33L88.98 5.33Q89.80 5.12 90.64 5.05L90.64 5.05L90.64 5.05Q91.48 4.98 92.25 5.01L92.25 5.01L92.19 5.08L92.30 5.08L92.30 5.08Q92.27 4.26 92.32 3.46L92.32 3.46L92.32 3.46Q92.37 2.67 92.55 2.00L92.55 2.00L92.55 1.83L92.55 1.83Q92.58 1.71 92.70 1.55L92.70 1.55L92.70 1.55Q92.82 1.39 92.96 1.25L92.96 1.25L92.96 1.25Q93.10 1.11 93.24 1.02L93.24 1.02L93.24 1.02Q93.38 0.94 93.44 0.99L93.44 0.99L93.48 0.95ZM96.56 1.62L96.56 1.62L96.56 1.62Q96.77 1.39 97.19 1.15L97.19 1.15L97.19 1.15Q97.61 0.91 98.09 0.76L98.09 0.76L98.09 0.76Q98.57 0.62 99.05 0.62L99.05 0.62L99.05 0.62Q99.53 0.62 99.86 0.85L99.86 0.85L99.95 0.77L99.95 0.77Q100.74 1.04 101.29 1.49L101.29 1.49L101.29 1.49Q101.84 1.95 102.10 2.79L102.10 2.79L102.10 2.79Q102.17 3.01 102.16 3.23L102.16 3.23L102.16 3.23Q102.14 3.46 102.21 3.68L102.21 3.68L102.21 3.68Q102.31 4.09 102.44 4.63L102.44 4.63L102.44 4.63Q102.58 5.18 102.51 5.85L102.51 5.85L102.51 5.85Q102.41 6.72 101.95 7.56L101.95 7.56L101.95 7.56Q101.49 8.40 100.79 9.02L100.79 9.02L100.79 9.02Q100.09 9.65 99.20 9.97L99.20 9.97L99.20 9.97Q98.32 10.30 97.40 10.14L97.40 10.14L97.40 10.14Q96.89 10.05 96.49 9.80L96.49 9.80L96.49 9.80Q96.08 9.55 95.77 9.19L95.77 9.19L95.77 9.19Q95.47 8.83 95.25 8.39L95.25 8.39L95.25 8.39Q95.03 7.95 94.91 7.48L94.91 7.48L94.91 7.48Q94.75 6.93 94.69 6.31L94.69 6.31L94.69 6.31Q94.63 5.70 94.68 5.08L94.68 5.08L94.68 5.08Q94.74 4.45 94.93 3.87L94.93 3.87L94.93 3.87Q95.13 3.29 95.48 2.83L95.48 2.83L95.48 2.83Q95.72 2.51 96.00 2.22L96.00 2.22L96.00 2.22Q96.28 1.93 96.56 1.62ZM99.62 2.41L99.62 2.41L99.62 2.41Q99.55 2.34 99.46 2.30L99.46 2.30L99.46 2.30Q99.36 2.25 99.26 2.21L99.26 2.21L99.18 2.30L99.18 2.30Q98.92 2.06 98.49 2.14L98.49 2.14L98.49 2.14Q98.06 2.23 97.61 2.44L97.61 2.44L97.50 2.62L97.50 2.62Q97.22 2.74 97.06 2.93L97.06 2.93L97.06 2.93Q96.91 3.11 96.83 3.33L96.83 3.33L96.83 3.33Q96.75 3.56 96.73 3.82L96.73 3.82L96.73 3.82Q96.70 4.09 96.68 4.38L96.68 4.38L96.68 4.38Q96.66 4.82 96.68 5.33L96.68 5.33L96.68 5.33Q96.70 5.85 96.80 6.37L96.80 6.37L96.80 6.37Q96.91 6.89 97.12 7.34L97.12 7.34L97.12 7.34Q97.33 7.80 97.68 8.12L97.68 8.12L97.68 8.12Q97.79 8.23 97.92 8.30L97.92 8.30L97.92 8.30Q98.04 8.37 98.17 8.44L98.17 8.44L98.17 8.44Q98.49 8.44 98.85 8.38L98.85 8.38L98.85 8.38Q99.22 8.32 99.55 8.20L99.55 8.20L99.55 8.20Q99.89 8.08 100.15 7.92L100.15 7.92L100.15 7.92Q100.41 7.77 100.52 7.57L100.52 7.57L100.52 7.57Q100.81 7.04 100.86 6.33L100.86 6.33L100.86 6.33Q100.91 5.61 100.78 4.89L100.78 4.89L100.78 4.89Q100.65 4.16 100.34 3.49L100.34 3.49L100.34 3.49Q100.04 2.83 99.62 2.41ZM98.38 9.23L98.38 9.23L98.38 9.23Q99.01 9.31 99.55 9.16L99.55 9.16L99.55 9.16Q100.09 9.00 100.51 8.67L100.51 8.67L100.51 8.67Q100.93 8.33 101.20 7.83L101.20 7.83L101.20 7.83Q101.47 7.34 101.56 6.73L101.56 6.73L101.56 6.73Q101.43 7.06 101.25 7.35L101.25 7.35L101.25 7.35Q101.14 7.50 100.97 7.67L100.97 7.67L100.97 7.67Q100.81 7.84 100.65 8.00L100.65 8.00L100.65 8.00Q100.48 8.16 100.33 8.29L100.33 8.29L100.33 8.29Q100.18 8.43 100.09 8.53L100.09 8.53L100.09 8.53Q99.92 8.68 99.44 8.88L99.44 8.88L99.44 8.88Q98.97 9.09 98.38 9.23ZM96.17 2.63L96.17 2.63L96.17 2.63Q95.97 2.98 95.83 3.44L95.83 3.44L95.83 3.44Q96.25 2.77 96.85 2.30L96.85 2.30L96.85 2.30Q97.05 2.14 97.41 1.92L97.41 1.92L97.41 1.92Q97.78 1.71 98.22 1.53L98.22 1.53L98.22 1.53Q97.93 1.53 97.61 1.63L97.61 1.63L97.61 1.63Q97.29 1.74 97.00 1.90L97.00 1.90L97.00 1.90Q96.71 2.06 96.49 2.25L96.49 2.25L96.49 2.25Q96.28 2.44 96.17 2.63ZM111.15 2.25L110.95 2.44L110.95 2.44Q110.94 2.55 110.93 2.65L110.93 2.65L110.93 2.65Q110.92 2.76 110.92 2.84L110.92 2.84L110.92 2.84Q110.87 3.29 110.80 3.73L110.80 3.73L110.80 3.73Q110.73 4.17 110.67 4.62L110.67 4.62L110.67 4.62Q110.56 5.42 110.47 6.22L110.47 6.22L110.47 6.22Q110.38 7.01 110.26 7.81L110.26 7.81L110.26 7.81Q110.25 7.91 110.24 8.00L110.24 8.00L110.24 8.00Q110.22 8.09 110.21 8.19L110.21 8.19L110.21 8.19Q110.24 8.60 110.23 9.04L110.23 9.04L110.23 9.04Q110.22 9.48 110.11 9.74L110.11 9.74L110.11 9.74Q110.07 9.84 110.00 9.93L110.00 9.93L110.00 9.93Q109.93 10.02 109.86 10.11L109.86 10.11L109.82 10.49L109.82 10.49Q109.79 10.56 109.69 10.70L109.69 10.70L109.69 10.70Q109.59 10.84 109.48 10.98L109.48 10.98L109.48 10.98Q109.44 11.13 109.36 11.28L109.36 11.28L109.36 11.28Q109.28 11.42 109.14 11.56L109.14 11.56L109.14 11.56Q109.03 11.66 108.89 11.77L108.89 11.77L108.89 11.77Q108.75 11.89 108.60 11.89L108.60 11.89L108.60 11.89Q108.53 11.89 108.43 11.76L108.43 11.76L108.43 11.76Q108.33 11.63 108.24 11.48L108.24 11.48L108.24 11.48Q108.15 11.33 108.09 11.19L108.09 11.19L108.09 11.19Q108.02 11.06 108.02 11.05L108.02 11.05L108.02 11.05Q107.70 10.44 107.44 9.82L107.44 9.82L107.44 9.82Q107.17 9.20 106.93 8.55L106.93 8.55L106.93 8.55Q106.90 8.48 106.88 8.41L106.88 8.41L106.88 8.41Q106.85 8.33 106.82 8.26L106.82 8.26L106.82 8.26Q106.79 8.85 106.78 9.42L106.78 9.42L106.78 9.42Q106.76 10.00 106.67 10.58L106.67 10.58L106.67 10.58Q106.65 10.67 106.53 10.84L106.53 10.84L106.53 10.84Q106.41 11.00 106.27 11.16L106.27 11.16L106.27 11.16Q106.12 11.31 105.97 11.39L105.97 11.39L105.97 11.39Q105.83 11.47 105.74 11.38L105.74 11.38L105.74 11.38Q105.71 11.35 105.71 11.33L105.71 11.33L105.71 11.33Q105.69 11.33 105.69 11.35L105.69 11.35L105.69 11.35Q105.57 11.30 105.55 11.10L105.55 11.10L105.55 11.10Q105.31 11.31 105.17 11.27L105.17 11.27L105.17 11.27Q105.01 11.38 104.90 11.35L104.90 11.35L104.87 11.38L104.87 11.38Q104.85 11.33 104.82 11.21L104.82 11.21L104.82 11.21Q104.79 11.14 104.78 11.09L104.78 11.09L104.78 11.09Q104.76 11.03 104.73 10.98L104.73 10.98L104.73 10.98Q104.33 9.69 103.98 8.39L103.98 8.39L103.98 8.39Q103.63 7.08 103.35 5.75L103.35 5.75L103.35 5.75Q103.29 5.52 103.22 5.18L103.22 5.18L103.22 5.18Q103.15 4.84 103.11 4.49L103.11 4.49L103.11 4.49Q103.07 4.13 103.06 3.79L103.06 3.79L103.06 3.79Q103.05 3.46 103.14 3.22L103.14 3.22L103.14 3.22Q103.07 2.97 103.02 2.71L103.02 2.71L103.02 2.71Q102.97 2.45 102.90 2.20L102.90 2.20L102.90 2.20Q102.90 2.18 102.87 2.13L102.87 2.13L102.87 2.13Q102.90 2.11 102.93 2.09L102.93 2.09L102.93 2.09Q102.97 1.97 103.05 1.84L103.05 1.84L103.05 1.84Q103.14 1.71 103.25 1.60L103.25 1.60L103.25 1.60Q103.36 1.48 103.49 1.41L103.49 1.41L103.49 1.41Q103.61 1.33 103.74 1.33L103.74 1.33L103.74 1.33Q103.75 1.32 103.76 1.30L103.76 1.30L103.76 1.30Q103.77 1.29 103.80 1.27L103.80 1.27L103.80 1.27Q103.80 1.32 103.81 1.33L103.81 1.33L103.98 1.79L103.92 1.85L103.92 1.85Q104.27 3.36 104.59 4.86L104.59 4.86L104.59 4.86Q104.92 6.36 105.24 7.88L105.24 7.88L105.24 7.88Q105.22 7.87 105.22 7.87L105.22 7.87L105.22 7.87Q105.22 7.85 105.21 7.84L105.21 7.84L105.21 7.84Q105.24 7.90 105.24 7.90L105.24 7.90L105.24 7.90Q105.24 7.92 105.24 7.95L105.24 7.95L105.24 7.95Q105.25 7.97 105.25 7.99L105.25 7.99L105.25 7.99Q105.36 8.30 105.48 8.60L105.48 8.60L105.48 8.60Q105.59 8.89 105.70 9.18L105.70 9.18L105.70 9.18Q105.73 9.03 105.77 8.88L105.77 8.88L105.77 8.88Q105.81 8.72 105.85 8.57L105.85 8.57L105.85 8.57Q105.88 8.46 105.91 8.40L105.91 8.40L105.91 8.40Q105.97 7.83 106.15 7.34L106.15 7.34L106.15 7.34Q106.34 6.86 106.82 6.66L106.82 6.66L106.82 6.66Q106.93 6.55 107.06 6.48L107.06 6.48L107.06 6.48Q107.18 6.41 107.32 6.44L107.32 6.44L107.32 6.44Q107.38 6.47 107.39 6.50L107.39 6.50L107.39 6.50Q107.44 6.47 107.48 6.45L107.48 6.45L107.48 6.45Q107.52 6.43 107.56 6.40L107.56 6.40L107.56 6.40Q107.58 6.40 107.58 6.39L107.58 6.39L107.58 6.39Q107.59 6.38 107.60 6.38L107.60 6.38L107.60 6.38Q107.65 6.37 107.69 6.36L107.69 6.36L107.69 6.36Q107.74 6.36 107.79 6.37L107.79 6.37L107.79 6.37Q107.87 6.54 107.93 6.73L107.93 6.73L107.93 6.73Q107.98 6.92 108.05 7.08L108.05 7.08L108.05 7.08Q108.25 7.62 108.48 8.13L108.48 8.13L108.48 8.13Q108.71 8.65 108.92 9.17L108.92 9.17L108.92 9.17Q108.95 9.23 108.98 9.28L108.98 9.28L108.98 9.28Q109.00 9.32 109.03 9.38L109.03 9.38L109.03 9.38Q109.06 9.03 109.09 8.70L109.09 8.70L109.09 8.70Q109.13 8.37 109.16 8.09L109.16 8.09L109.16 8.09Q109.20 7.39 109.23 6.61L109.23 6.61L109.23 6.61Q109.26 5.82 109.34 5.04L109.34 5.04L109.34 5.04Q109.42 4.26 109.59 3.52L109.59 3.52L109.59 3.52Q109.76 2.79 110.07 2.20L110.07 2.20L110.07 2.20Q110.10 2.16 110.22 2.01L110.22 2.01L110.22 2.01Q110.35 1.86 110.49 1.73L110.49 1.73L110.49 1.73Q110.64 1.60 110.77 1.54L110.77 1.54L110.77 1.54Q110.89 1.48 110.92 1.62L110.92 1.62L110.92 1.62Q110.92 1.69 110.91 1.77L110.91 1.77L110.91 1.77Q110.91 1.85 110.89 1.92L110.89 1.92L110.89 1.92Q110.94 1.90 111.05 1.90L111.05 1.90L111.05 1.90Q111.09 1.99 111.10 2.08L111.10 2.08L111.10 2.08Q111.12 2.17 111.15 2.25L111.15 2.25ZM118.47 0.81L117.67 1.74L117.67 1.74Q117.56 1.74 117.50 1.72L117.50 1.72L117.47 1.76L117.47 1.76Q117.38 1.78 117.28 1.79L117.28 1.79L117.28 1.79Q117.19 1.81 117.08 1.83L117.08 1.83L117.04 1.83L117.04 1.83Q116.66 1.90 116.21 2.03L116.21 2.03L116.21 2.03Q115.77 2.16 115.30 2.34L115.30 2.34L115.30 2.34Q114.76 2.70 114.21 3.21L114.21 3.21L114.21 3.21Q114.03 3.70 113.92 4.21L113.92 4.21L113.92 4.21Q113.81 4.72 113.89 5.21L113.89 5.21L113.89 5.21Q114.28 5.22 114.72 5.11L114.72 5.11L114.72 5.11Q115.15 5.00 115.59 4.87L115.59 4.87L115.59 4.87Q116.03 4.75 116.47 4.65L116.47 4.65L116.47 4.65Q116.91 4.55 117.31 4.59L117.31 4.59L117.31 4.59Q117.42 4.62 117.56 4.66L117.56 4.66L117.56 4.66Q117.70 4.69 117.84 4.72L117.84 4.72L117.84 4.72Q118.22 4.68 118.48 4.70L118.48 4.70L118.48 4.70Q118.75 4.72 118.92 4.87L118.92 4.87L118.92 4.87Q119.07 4.90 119.11 4.96L119.11 4.96L119.11 4.96Q119.28 5.24 119.30 5.50L119.30 5.50L119.30 5.50Q119.32 5.75 119.24 5.99L119.24 5.99L119.24 5.99Q119.24 6.34 119.08 6.69L119.08 6.69L119.08 6.69Q118.93 7.04 118.69 7.36L118.69 7.36L118.69 7.36Q118.51 7.70 118.24 8.02L118.24 8.02L118.24 8.02Q117.96 8.33 117.67 8.62L117.67 8.62L117.67 8.62Q117.38 8.90 117.08 9.16L117.08 9.16L117.08 9.16Q116.79 9.42 116.56 9.65L116.56 9.65L116.56 9.65Q116.12 10.14 115.74 10.38L115.74 10.38L115.74 10.38Q115.37 10.63 114.95 10.70L114.95 10.70L114.95 10.70Q114.58 10.85 114.18 10.93L114.18 10.93L114.18 10.93Q114.16 10.93 114.12 10.94L114.12 10.94L114.12 10.94Q114.09 10.95 114.06 10.95L114.06 10.95L114.06 10.95Q113.95 11.03 113.90 11.07L113.90 11.07L113.90 11.07Q113.90 11.05 113.92 11.03L113.92 11.03L113.92 11.03Q113.93 11.00 113.93 10.98L113.93 10.98L113.93 10.98Q113.65 11.02 113.43 11.02L113.43 11.02L113.43 11.02Q113.20 11.02 112.99 10.99L112.99 10.99L112.99 10.99Q112.77 10.96 112.55 10.89L112.55 10.89L112.55 10.89Q112.32 10.82 112.03 10.74L112.03 10.74L112.03 10.74Q111.87 10.68 111.73 10.63L111.73 10.63L111.73 10.63Q111.58 10.57 111.48 10.43L111.48 10.43L111.48 10.43Q111.59 10.32 111.71 10.22L111.71 10.22L111.71 10.22Q111.82 10.12 111.93 10.01L111.93 10.01L111.93 10.01Q111.89 9.88 111.80 9.76L111.80 9.76L111.80 9.76Q111.82 9.63 111.91 9.48L111.91 9.48L111.91 9.48Q112 9.32 112.13 9.18L112.13 9.18L112.13 9.18Q112.27 9.04 112.42 8.95L112.42 8.95L112.42 8.95Q112.57 8.86 112.71 8.89L112.71 8.89L112.73 8.88L112.73 8.88Q112.73 8.90 112.76 8.93L112.76 8.93L112.76 8.93Q112.84 9.04 112.92 9.04L112.92 9.04L112.83 9.16L112.83 9.16Q112.84 9.24 112.90 9.31L112.90 9.31L112.90 9.31Q112.95 9.42 113.12 9.52L113.12 9.52L113.15 9.49L113.15 9.49Q113.69 9.60 114.16 9.62L114.16 9.62L114.16 9.62Q114.63 9.63 115.08 9.56L115.08 9.56L115.08 9.56Q115.30 9.35 115.51 9.13L115.51 9.13L115.51 9.13Q115.72 8.92 115.96 8.69L115.96 8.69L115.98 8.68L115.98 8.68Q116.00 8.65 116.04 8.62L116.04 8.62L116.04 8.62Q116.07 8.58 116.12 8.55L116.12 8.55L116.19 8.48L116.19 8.48Q116.30 8.37 116.42 8.26L116.42 8.26L116.42 8.26Q116.54 8.15 116.66 8.04L116.66 8.04L116.66 8.04Q116.70 7.99 116.75 7.96L116.75 7.96L116.75 7.96Q116.80 7.92 116.84 7.88L116.84 7.88L116.84 7.88Q116.97 7.42 116.96 6.96L116.96 6.96L116.96 6.96Q116.96 6.50 116.77 5.94L116.77 5.94L116.73 5.94L116.70 5.96L116.70 5.95L116.70 5.95Q116.20 6.05 115.71 6.20L115.71 6.20L115.71 6.20Q115.22 6.36 114.72 6.49L114.72 6.49L114.72 6.49Q114.23 6.62 113.74 6.69L113.74 6.69L113.74 6.69Q113.25 6.76 112.76 6.68L112.76 6.68L112.76 6.68Q112.60 6.65 112.46 6.58L112.46 6.58L112.46 6.58Q112.32 6.51 112.18 6.44L112.18 6.44L112.18 6.44Q112.01 6.37 111.95 6.21L111.95 6.21L111.95 6.21Q111.89 6.05 111.92 5.85L111.92 5.85L111.92 5.85Q111.86 5.67 111.89 5.46L111.89 5.46L111.89 5.46Q111.93 5.25 112.01 5.01L112.01 5.01L112.01 5.01Q112.03 4.80 112.05 4.59L112.05 4.59L112.05 4.59Q112.07 4.38 112.10 4.19L112.10 4.19L112.10 4.19Q112.14 4.00 112.17 3.87L112.17 3.87L112.17 3.87Q112.20 3.74 112.21 3.68L112.21 3.68L112.21 3.68Q112.22 3.64 112.27 3.56L112.27 3.56L112.27 3.56Q112.31 3.47 112.36 3.39L112.36 3.39L112.36 3.39Q112.41 3.30 112.45 3.24L112.45 3.24L112.45 3.24Q112.49 3.18 112.49 3.18L112.49 3.18L112.49 3.18Q112.70 2.83 113.01 2.55L113.01 2.55L113.01 2.55Q113.32 2.28 113.66 2.06L113.66 2.06L113.66 2.06Q114.00 1.85 114.37 1.66L114.37 1.66L114.37 1.66Q114.74 1.47 115.09 1.29L115.09 1.29L115.09 1.29Q115.42 1.12 115.72 0.94L115.72 0.94L115.72 0.94Q116.03 0.76 116.41 0.71L116.41 0.71L116.41 0.71Q116.58 0.70 116.75 0.73L116.75 0.73L116.75 0.73Q116.91 0.76 117.08 0.80L117.08 0.80L117.08 0.80Q117.17 0.81 117.26 0.82L117.26 0.82L117.26 0.82Q117.35 0.83 117.45 0.84L117.45 0.84L117.45 0.84Q117.68 0.80 117.94 0.79L117.94 0.79L117.94 0.79Q118.20 0.78 118.47 0.81L118.47 0.81ZM115.82 9.34L116.45 8.97L116.45 8.97Q116.49 8.88 116.53 8.79L116.53 8.79L116.53 8.79Q116.56 8.69 116.61 8.60L116.61 8.60L116.61 8.60Q116.40 8.78 116.21 8.97L116.21 8.97L116.21 8.97Q116.02 9.16 115.82 9.34L115.82 9.34ZM117.94 6.38L117.94 6.38L117.94 6.38Q117.91 6.36 117.90 6.32L117.90 6.32L117.90 6.32Q117.89 6.29 117.87 6.26L117.87 6.26L117.87 6.26Q117.85 6.71 117.74 7.17L117.74 7.17L117.74 7.17Q117.82 7.10 117.90 7.03L117.90 7.03L117.90 7.03Q117.98 6.96 118.06 6.89L118.06 6.89L118.06 6.89Q118.05 6.65 117.94 6.38ZM113.05 3.36L113.05 3.36L113.05 3.36Q113.34 3.00 113.74 2.67L113.74 2.67L113.74 2.67Q113.76 2.63 113.78 2.59L113.78 2.59L113.78 2.59Q113.81 2.55 113.83 2.51L113.83 2.51L113.83 2.51Q113.64 2.62 113.48 2.72L113.48 2.72L113.48 2.72Q113.33 2.83 113.23 2.90L113.23 2.90L113.23 2.90Q113.13 3.00 113.05 3.36ZM112.92 4.69L112.92 4.69L112.92 4.69Q112.95 4.83 113.01 4.90L113.01 4.90L113.13 4.31L113.13 4.31Q113.01 4.49 112.92 4.69Z"></path></g><!----><!----></svg>